<mxfile host="65bd71144e">
    <diagram id="VTd0FvHxLae6MAURNyiS" name="flow">
        <mxGraphModel dx="816" dy="1575" grid="1" gridSize="10" guides="1" tooltips="1" connect="1" arrows="1" fold="1" page="1" pageScale="1" pageWidth="850" pageHeight="1100" math="0" shadow="0">
            <root>
                <mxCell id="0"/>
                <mxCell id="1" parent="0"/>
                <mxCell id="6VkhnEtyLYSgE16NDFi6-267" value="Pool" style="swimlane;childLayout=stackLayout;resizeParent=1;resizeParentMax=0;horizontal=1;startSize=20;horizontalStack=0;html=1;" parent="1" vertex="1">
                    <mxGeometry x="18" y="-1064" width="812" height="1490" as="geometry"/>
                </mxCell>
                <mxCell id="6VkhnEtyLYSgE16NDFi6-268" value="User" style="swimlane;startSize=20;horizontal=0;html=1;" parent="6VkhnEtyLYSgE16NDFi6-267" vertex="1">
                    <mxGeometry y="20" width="812" height="150" as="geometry"/>
                </mxCell>
                <mxCell id="6VkhnEtyLYSgE16NDFi6-476" value="Start" style="ellipse;whiteSpace=wrap;html=1;" parent="6VkhnEtyLYSgE16NDFi6-268" vertex="1">
                    <mxGeometry x="47" y="10" width="80" height="40" as="geometry"/>
                </mxCell>
                <mxCell id="6VkhnEtyLYSgE16NDFi6-478" value="Request" style="whiteSpace=wrap;html=1;" parent="6VkhnEtyLYSgE16NDFi6-268" vertex="1">
                    <mxGeometry x="194" y="14" width="102" height="32" as="geometry"/>
                </mxCell>
                <mxCell id="6VkhnEtyLYSgE16NDFi6-479" value="" style="edgeStyle=none;html=1;" parent="6VkhnEtyLYSgE16NDFi6-268" source="6VkhnEtyLYSgE16NDFi6-476" target="6VkhnEtyLYSgE16NDFi6-478" edge="1">
                    <mxGeometry relative="1" as="geometry"/>
                </mxCell>
                <mxCell id="6VkhnEtyLYSgE16NDFi6-480" value="Submit" style="whiteSpace=wrap;html=1;" parent="6VkhnEtyLYSgE16NDFi6-268" vertex="1">
                    <mxGeometry x="194" y="94" width="102" height="32" as="geometry"/>
                </mxCell>
                <mxCell id="6VkhnEtyLYSgE16NDFi6-477" value="" style="edgeStyle=orthogonalEdgeStyle;html=1;" parent="6VkhnEtyLYSgE16NDFi6-268" source="6VkhnEtyLYSgE16NDFi6-478" target="6VkhnEtyLYSgE16NDFi6-480" edge="1">
                    <mxGeometry relative="1" as="geometry"/>
                </mxCell>
                <mxCell id="6VkhnEtyLYSgE16NDFi6-481" style="edgeStyle=orthogonalEdgeStyle;html=1;entryX=0;entryY=0.5;entryDx=0;entryDy=0;" parent="6VkhnEtyLYSgE16NDFi6-268" source="6VkhnEtyLYSgE16NDFi6-482" target="6VkhnEtyLYSgE16NDFi6-480" edge="1">
                    <mxGeometry relative="1" as="geometry"/>
                </mxCell>
                <mxCell id="6VkhnEtyLYSgE16NDFi6-482" value="Edit" style="whiteSpace=wrap;html=1;" parent="6VkhnEtyLYSgE16NDFi6-268" vertex="1">
                    <mxGeometry x="36" y="94" width="102" height="32" as="geometry"/>
                </mxCell>
                <mxCell id="6VkhnEtyLYSgE16NDFi6-271" value="VP User" style="swimlane;startSize=20;horizontal=0;html=1;" parent="6VkhnEtyLYSgE16NDFi6-267" vertex="1">
                    <mxGeometry y="170" width="812" height="120" as="geometry"/>
                </mxCell>
                <mxCell id="d77ejMVqEmM0quviTSSw-8" value="" style="edgeStyle=orthogonalEdgeStyle;html=1;" parent="6VkhnEtyLYSgE16NDFi6-271" source="6VkhnEtyLYSgE16NDFi6-483" target="d77ejMVqEmM0quviTSSw-7" edge="1">
                    <mxGeometry relative="1" as="geometry"/>
                </mxCell>
                <mxCell id="6VkhnEtyLYSgE16NDFi6-483" value="Approve" style="rhombus;whiteSpace=wrap;html=1;" parent="6VkhnEtyLYSgE16NDFi6-271" vertex="1">
                    <mxGeometry x="205" y="38" width="80" height="44" as="geometry"/>
                </mxCell>
                <mxCell id="6VkhnEtyLYSgE16NDFi6-486" value="Yes" style="text;html=1;align=center;verticalAlign=middle;resizable=0;points=[];autosize=1;strokeColor=none;fillColor=none;" parent="6VkhnEtyLYSgE16NDFi6-271" vertex="1">
                    <mxGeometry x="277" y="34" width="40" height="30" as="geometry"/>
                </mxCell>
                <mxCell id="6VkhnEtyLYSgE16NDFi6-529" value="&amp;gt; Rp.10.000.000 &amp;amp; Pengadaan/Perpanjang Kontrak" style="rhombus;whiteSpace=wrap;html=1;" parent="6VkhnEtyLYSgE16NDFi6-271" vertex="1">
                    <mxGeometry x="510" y="10" width="172" height="100" as="geometry"/>
                </mxCell>
                <mxCell id="6VkhnEtyLYSgE16NDFi6-488" value="Yes" style="text;html=1;align=center;verticalAlign=middle;resizable=0;points=[];autosize=1;strokeColor=none;fillColor=none;" parent="6VkhnEtyLYSgE16NDFi6-271" vertex="1">
                    <mxGeometry x="367" y="82" width="40" height="30" as="geometry"/>
                </mxCell>
                <mxCell id="d77ejMVqEmM0quviTSSw-9" style="edgeStyle=orthogonalEdgeStyle;html=1;entryX=0;entryY=0.5;entryDx=0;entryDy=0;" parent="6VkhnEtyLYSgE16NDFi6-271" source="d77ejMVqEmM0quviTSSw-7" target="6VkhnEtyLYSgE16NDFi6-529" edge="1">
                    <mxGeometry relative="1" as="geometry"/>
                </mxCell>
                <mxCell id="d77ejMVqEmM0quviTSSw-7" value="Relocation" style="rhombus;whiteSpace=wrap;html=1;" parent="6VkhnEtyLYSgE16NDFi6-271" vertex="1">
                    <mxGeometry x="361" y="38" width="80" height="44" as="geometry"/>
                </mxCell>
                <mxCell id="d77ejMVqEmM0quviTSSw-26" value="Yes" style="text;html=1;align=center;verticalAlign=middle;resizable=0;points=[];autosize=1;strokeColor=none;fillColor=none;" parent="6VkhnEtyLYSgE16NDFi6-271" vertex="1">
                    <mxGeometry x="682" y="34" width="40" height="30" as="geometry"/>
                </mxCell>
                <mxCell id="d77ejMVqEmM0quviTSSw-1" value="Financial Planning" style="swimlane;startSize=20;horizontal=0;html=1;" parent="6VkhnEtyLYSgE16NDFi6-267" vertex="1">
                    <mxGeometry y="290" width="812" height="120" as="geometry"/>
                </mxCell>
                <mxCell id="ZYzJCUJ963EIOgTeUIox-3" value="Relocation" style="whiteSpace=wrap;html=1;" parent="d77ejMVqEmM0quviTSSw-1" vertex="1">
                    <mxGeometry x="193" y="44" width="102" height="32" as="geometry"/>
                </mxCell>
                <mxCell id="ZYzJCUJ963EIOgTeUIox-1" value="SM Financial Planning" style="swimlane;startSize=20;horizontal=0;html=1;" parent="6VkhnEtyLYSgE16NDFi6-267" vertex="1">
                    <mxGeometry y="410" width="812" height="120" as="geometry"/>
                </mxCell>
                <mxCell id="d77ejMVqEmM0quviTSSw-11" value="Approve" style="rhombus;whiteSpace=wrap;html=1;" parent="ZYzJCUJ963EIOgTeUIox-1" vertex="1">
                    <mxGeometry x="204" y="38" width="80" height="44" as="geometry"/>
                </mxCell>
                <mxCell id="d77ejMVqEmM0quviTSSw-15" value="Yes" style="text;html=1;align=center;verticalAlign=middle;resizable=0;points=[];autosize=1;strokeColor=none;fillColor=none;" parent="ZYzJCUJ963EIOgTeUIox-1" vertex="1">
                    <mxGeometry x="277" y="64" width="40" height="30" as="geometry"/>
                </mxCell>
                <mxCell id="6VkhnEtyLYSgE16NDFi6-272" value="Pricing" style="swimlane;startSize=20;horizontal=0;html=1;" parent="6VkhnEtyLYSgE16NDFi6-267" vertex="1">
                    <mxGeometry y="530" width="812" height="120" as="geometry"/>
                </mxCell>
                <mxCell id="d77ejMVqEmM0quviTSSw-16" value="HPS" style="whiteSpace=wrap;html=1;" parent="6VkhnEtyLYSgE16NDFi6-272" vertex="1">
                    <mxGeometry x="654" y="44" width="102" height="32" as="geometry"/>
                </mxCell>
                <mxCell id="d77ejMVqEmM0quviTSSw-29" value="SM Pricing" style="swimlane;startSize=20;horizontal=0;html=1;" parent="6VkhnEtyLYSgE16NDFi6-267" vertex="1">
                    <mxGeometry y="650" width="812" height="120" as="geometry"/>
                </mxCell>
                <mxCell id="d77ejMVqEmM0quviTSSw-32" value="Approve" style="rhombus;whiteSpace=wrap;html=1;" parent="d77ejMVqEmM0quviTSSw-29" vertex="1">
                    <mxGeometry x="665" y="38" width="80" height="44" as="geometry"/>
                </mxCell>
                <mxCell id="d77ejMVqEmM0quviTSSw-34" value="Yes" style="text;html=1;align=center;verticalAlign=middle;resizable=0;points=[];autosize=1;strokeColor=none;fillColor=none;" parent="d77ejMVqEmM0quviTSSw-29" vertex="1">
                    <mxGeometry x="670" y="74" width="40" height="30" as="geometry"/>
                </mxCell>
                <mxCell id="6VkhnEtyLYSgE16NDFi6-273" value="Financial Analyst" style="swimlane;startSize=20;horizontal=0;html=1;" parent="6VkhnEtyLYSgE16NDFi6-267" vertex="1">
                    <mxGeometry y="770" width="812" height="120" as="geometry"/>
                </mxCell>
                <mxCell id="6VkhnEtyLYSgE16NDFi6-487" value="Approve" style="rhombus;whiteSpace=wrap;html=1;" parent="6VkhnEtyLYSgE16NDFi6-273" vertex="1">
                    <mxGeometry x="205" y="38" width="80" height="44" as="geometry"/>
                </mxCell>
                <mxCell id="6VkhnEtyLYSgE16NDFi6-490" value="Analisa/&lt;br&gt;Verification" style="whiteSpace=wrap;html=1;" parent="6VkhnEtyLYSgE16NDFi6-273" vertex="1">
                    <mxGeometry x="395" y="44" width="102" height="32" as="geometry"/>
                </mxCell>
                <mxCell id="6VkhnEtyLYSgE16NDFi6-489" style="edgeStyle=orthogonalEdgeStyle;html=1;entryX=1;entryY=0.5;entryDx=0;entryDy=0;" parent="6VkhnEtyLYSgE16NDFi6-273" source="6VkhnEtyLYSgE16NDFi6-490" target="6VkhnEtyLYSgE16NDFi6-487" edge="1">
                    <mxGeometry relative="1" as="geometry">
                        <mxPoint x="336" y="60" as="targetPoint"/>
                    </mxGeometry>
                </mxCell>
                <mxCell id="6VkhnEtyLYSgE16NDFi6-494" value="Yes" style="text;html=1;align=center;verticalAlign=middle;resizable=0;points=[];autosize=1;strokeColor=none;fillColor=none;" parent="6VkhnEtyLYSgE16NDFi6-273" vertex="1">
                    <mxGeometry x="245" y="76" width="40" height="30" as="geometry"/>
                </mxCell>
                <mxCell id="6VkhnEtyLYSgE16NDFi6-274" value="SM Finance" style="swimlane;startSize=20;horizontal=0;html=1;" parent="6VkhnEtyLYSgE16NDFi6-267" vertex="1">
                    <mxGeometry y="890" width="812" height="120" as="geometry"/>
                </mxCell>
                <mxCell id="6VkhnEtyLYSgE16NDFi6-491" value="Approve" style="rhombus;whiteSpace=wrap;html=1;" parent="6VkhnEtyLYSgE16NDFi6-274" vertex="1">
                    <mxGeometry x="205" y="38" width="80" height="44" as="geometry"/>
                </mxCell>
                <mxCell id="6VkhnEtyLYSgE16NDFi6-496" value="Yes" style="text;html=1;align=center;verticalAlign=middle;resizable=0;points=[];autosize=1;strokeColor=none;fillColor=none;" parent="6VkhnEtyLYSgE16NDFi6-274" vertex="1">
                    <mxGeometry x="245" y="78" width="40" height="30" as="geometry"/>
                </mxCell>
                <mxCell id="6VkhnEtyLYSgE16NDFi6-275" value="VP Finance" style="swimlane;startSize=20;horizontal=0;html=1;" parent="6VkhnEtyLYSgE16NDFi6-267" vertex="1">
                    <mxGeometry y="1010" width="812" height="120" as="geometry"/>
                </mxCell>
                <mxCell id="6VkhnEtyLYSgE16NDFi6-493" value="Approve" style="rhombus;whiteSpace=wrap;html=1;" parent="6VkhnEtyLYSgE16NDFi6-275" vertex="1">
                    <mxGeometry x="205" y="38" width="80" height="44" as="geometry"/>
                </mxCell>
                <mxCell id="6VkhnEtyLYSgE16NDFi6-506" value="Yes" style="text;html=1;align=center;verticalAlign=middle;resizable=0;points=[];autosize=1;strokeColor=none;fillColor=none;" parent="6VkhnEtyLYSgE16NDFi6-275" vertex="1">
                    <mxGeometry x="270" y="28" width="40" height="30" as="geometry"/>
                </mxCell>
                <mxCell id="d77ejMVqEmM0quviTSSw-18" value="Approve" style="rhombus;whiteSpace=wrap;html=1;" parent="6VkhnEtyLYSgE16NDFi6-275" vertex="1">
                    <mxGeometry x="665" y="38" width="80" height="44" as="geometry"/>
                </mxCell>
                <mxCell id="d77ejMVqEmM0quviTSSw-27" value="Yes" style="text;html=1;align=center;verticalAlign=middle;resizable=0;points=[];autosize=1;strokeColor=none;fillColor=none;" parent="6VkhnEtyLYSgE16NDFi6-275" vertex="1">
                    <mxGeometry x="670" y="76" width="40" height="30" as="geometry"/>
                </mxCell>
                <mxCell id="6VkhnEtyLYSgE16NDFi6-276" value="SM Cash Mgt" style="swimlane;startSize=20;horizontal=0;html=1;" parent="6VkhnEtyLYSgE16NDFi6-267" vertex="1">
                    <mxGeometry y="1130" width="812" height="120" as="geometry"/>
                </mxCell>
                <mxCell id="6VkhnEtyLYSgE16NDFi6-495" value="Approve" style="rhombus;whiteSpace=wrap;html=1;" parent="6VkhnEtyLYSgE16NDFi6-276" vertex="1">
                    <mxGeometry x="205" y="38" width="80" height="44" as="geometry"/>
                </mxCell>
                <mxCell id="6VkhnEtyLYSgE16NDFi6-498" value="Analisa/&lt;br&gt;Verification" style="whiteSpace=wrap;html=1;" parent="6VkhnEtyLYSgE16NDFi6-276" vertex="1">
                    <mxGeometry x="368.9999999999999" y="44" width="102" height="32" as="geometry"/>
                </mxCell>
                <mxCell id="6VkhnEtyLYSgE16NDFi6-497" style="edgeStyle=orthogonalEdgeStyle;html=1;entryX=1;entryY=0.5;entryDx=0;entryDy=0;" parent="6VkhnEtyLYSgE16NDFi6-276" source="6VkhnEtyLYSgE16NDFi6-498" target="6VkhnEtyLYSgE16NDFi6-495" edge="1">
                    <mxGeometry relative="1" as="geometry"/>
                </mxCell>
                <mxCell id="6VkhnEtyLYSgE16NDFi6-492" value="Yes" style="text;html=1;align=center;verticalAlign=middle;resizable=0;points=[];autosize=1;strokeColor=none;fillColor=none;" parent="6VkhnEtyLYSgE16NDFi6-276" vertex="1">
                    <mxGeometry x="245" y="82" width="40" height="30" as="geometry"/>
                </mxCell>
                <mxCell id="6VkhnEtyLYSgE16NDFi6-278" value="VP Treasury" style="swimlane;startSize=20;horizontal=0;html=1;" parent="6VkhnEtyLYSgE16NDFi6-267" vertex="1">
                    <mxGeometry y="1250" width="812" height="120" as="geometry"/>
                </mxCell>
                <mxCell id="6VkhnEtyLYSgE16NDFi6-505" value="Approve" style="rhombus;whiteSpace=wrap;html=1;" parent="6VkhnEtyLYSgE16NDFi6-278" vertex="1">
                    <mxGeometry x="205" y="38" width="80" height="44" as="geometry"/>
                </mxCell>
                <mxCell id="6VkhnEtyLYSgE16NDFi6-508" value="Yes" style="text;html=1;align=center;verticalAlign=middle;resizable=0;points=[];autosize=1;strokeColor=none;fillColor=none;" parent="6VkhnEtyLYSgE16NDFi6-278" vertex="1">
                    <mxGeometry x="252" y="82" width="40" height="30" as="geometry"/>
                </mxCell>
                <mxCell id="6VkhnEtyLYSgE16NDFi6-523" style="edgeStyle=orthogonalEdgeStyle;html=1;exitX=0;exitY=0.5;exitDx=0;exitDy=0;entryX=0.5;entryY=1;entryDx=0;entryDy=0;" parent="6VkhnEtyLYSgE16NDFi6-267" source="6VkhnEtyLYSgE16NDFi6-510" target="6VkhnEtyLYSgE16NDFi6-482" edge="1">
                    <mxGeometry relative="1" as="geometry">
                        <mxPoint x="701" y="1340" as="targetPoint"/>
                    </mxGeometry>
                </mxCell>
                <mxCell id="6VkhnEtyLYSgE16NDFi6-513" value="" style="edgeStyle=orthogonalEdgeStyle;html=1;exitX=0.5;exitY=1;exitDx=0;exitDy=0;" parent="6VkhnEtyLYSgE16NDFi6-267" source="6VkhnEtyLYSgE16NDFi6-495" target="6VkhnEtyLYSgE16NDFi6-505" edge="1">
                    <mxGeometry relative="1" as="geometry"/>
                </mxCell>
                <mxCell id="6VkhnEtyLYSgE16NDFi6-522" style="edgeStyle=orthogonalEdgeStyle;html=1;entryX=0.5;entryY=1;entryDx=0;entryDy=0;exitX=0;exitY=0.5;exitDx=0;exitDy=0;" parent="6VkhnEtyLYSgE16NDFi6-267" source="6VkhnEtyLYSgE16NDFi6-505" target="6VkhnEtyLYSgE16NDFi6-482" edge="1">
                    <mxGeometry relative="1" as="geometry"/>
                </mxCell>
                <mxCell id="6VkhnEtyLYSgE16NDFi6-521" style="edgeStyle=orthogonalEdgeStyle;html=1;entryX=0.5;entryY=1;entryDx=0;entryDy=0;exitX=0;exitY=0.5;exitDx=0;exitDy=0;" parent="6VkhnEtyLYSgE16NDFi6-267" source="6VkhnEtyLYSgE16NDFi6-495" target="6VkhnEtyLYSgE16NDFi6-482" edge="1">
                    <mxGeometry relative="1" as="geometry">
                        <mxPoint x="867.81" y="1350" as="targetPoint"/>
                    </mxGeometry>
                </mxCell>
                <mxCell id="6VkhnEtyLYSgE16NDFi6-503" value="" style="edgeStyle=orthogonalEdgeStyle;html=1;entryX=0.5;entryY=0;entryDx=0;entryDy=0;exitX=1;exitY=0.5;exitDx=0;exitDy=0;" parent="6VkhnEtyLYSgE16NDFi6-267" source="6VkhnEtyLYSgE16NDFi6-493" target="6VkhnEtyLYSgE16NDFi6-498" edge="1">
                    <mxGeometry relative="1" as="geometry"/>
                </mxCell>
                <mxCell id="6VkhnEtyLYSgE16NDFi6-502" value="" style="edgeStyle=orthogonalEdgeStyle;html=1;" parent="6VkhnEtyLYSgE16NDFi6-267" source="6VkhnEtyLYSgE16NDFi6-491" target="6VkhnEtyLYSgE16NDFi6-493" edge="1">
                    <mxGeometry relative="1" as="geometry"/>
                </mxCell>
                <mxCell id="6VkhnEtyLYSgE16NDFi6-520" style="edgeStyle=orthogonalEdgeStyle;html=1;exitX=0;exitY=0.5;exitDx=0;exitDy=0;entryX=0.5;entryY=1;entryDx=0;entryDy=0;" parent="6VkhnEtyLYSgE16NDFi6-267" source="6VkhnEtyLYSgE16NDFi6-493" target="6VkhnEtyLYSgE16NDFi6-482" edge="1">
                    <mxGeometry relative="1" as="geometry">
                        <mxPoint x="161" y="1370" as="targetPoint"/>
                    </mxGeometry>
                </mxCell>
                <mxCell id="6VkhnEtyLYSgE16NDFi6-501" value="" style="edgeStyle=orthogonalEdgeStyle;html=1;" parent="6VkhnEtyLYSgE16NDFi6-267" source="6VkhnEtyLYSgE16NDFi6-487" target="6VkhnEtyLYSgE16NDFi6-491" edge="1">
                    <mxGeometry relative="1" as="geometry"/>
                </mxCell>
                <mxCell id="6VkhnEtyLYSgE16NDFi6-519" style="edgeStyle=orthogonalEdgeStyle;html=1;entryX=0.5;entryY=1;entryDx=0;entryDy=0;exitX=0;exitY=0.5;exitDx=0;exitDy=0;" parent="6VkhnEtyLYSgE16NDFi6-267" source="6VkhnEtyLYSgE16NDFi6-491" target="6VkhnEtyLYSgE16NDFi6-482" edge="1">
                    <mxGeometry relative="1" as="geometry"/>
                </mxCell>
                <mxCell id="6VkhnEtyLYSgE16NDFi6-525" value="Director Finance" style="swimlane;startSize=20;horizontal=0;html=1;" parent="6VkhnEtyLYSgE16NDFi6-267" vertex="1">
                    <mxGeometry y="1370" width="812" height="120" as="geometry"/>
                </mxCell>
                <mxCell id="6VkhnEtyLYSgE16NDFi6-534" style="edgeStyle=orthogonalEdgeStyle;html=1;entryX=0;entryY=0.5;entryDx=0;entryDy=0;" parent="6VkhnEtyLYSgE16NDFi6-525" source="6VkhnEtyLYSgE16NDFi6-510" target="6VkhnEtyLYSgE16NDFi6-511" edge="1">
                    <mxGeometry relative="1" as="geometry"/>
                </mxCell>
                <mxCell id="6VkhnEtyLYSgE16NDFi6-510" value="Approve" style="rhombus;whiteSpace=wrap;html=1;" parent="6VkhnEtyLYSgE16NDFi6-525" vertex="1">
                    <mxGeometry x="205" y="38" width="80" height="44" as="geometry"/>
                </mxCell>
                <mxCell id="6VkhnEtyLYSgE16NDFi6-512" value="Yes" style="text;html=1;align=center;verticalAlign=middle;resizable=0;points=[];autosize=1;strokeColor=none;fillColor=none;" parent="6VkhnEtyLYSgE16NDFi6-525" vertex="1">
                    <mxGeometry x="285" y="28" width="40" height="30" as="geometry"/>
                </mxCell>
                <mxCell id="6VkhnEtyLYSgE16NDFi6-511" value="End" style="ellipse;whiteSpace=wrap;html=1;" parent="6VkhnEtyLYSgE16NDFi6-525" vertex="1">
                    <mxGeometry x="388" y="39" width="80" height="42" as="geometry"/>
                </mxCell>
                <mxCell id="d77ejMVqEmM0quviTSSw-21" value="Approve" style="rhombus;whiteSpace=wrap;html=1;" parent="6VkhnEtyLYSgE16NDFi6-525" vertex="1">
                    <mxGeometry x="665" y="38" width="80" height="44" as="geometry"/>
                </mxCell>
                <mxCell id="d77ejMVqEmM0quviTSSw-28" value="Yes" style="text;html=1;align=center;verticalAlign=middle;resizable=0;points=[];autosize=1;strokeColor=none;fillColor=none;" parent="6VkhnEtyLYSgE16NDFi6-525" vertex="1">
                    <mxGeometry x="629" y="30" width="40" height="30" as="geometry"/>
                </mxCell>
                <mxCell id="6VkhnEtyLYSgE16NDFi6-518" style="edgeStyle=orthogonalEdgeStyle;html=1;exitX=0;exitY=0.5;exitDx=0;exitDy=0;entryX=0.5;entryY=1;entryDx=0;entryDy=0;" parent="6VkhnEtyLYSgE16NDFi6-267" source="6VkhnEtyLYSgE16NDFi6-487" target="6VkhnEtyLYSgE16NDFi6-482" edge="1">
                    <mxGeometry relative="1" as="geometry"/>
                </mxCell>
                <mxCell id="6VkhnEtyLYSgE16NDFi6-515" style="edgeStyle=orthogonalEdgeStyle;html=1;exitX=0.5;exitY=1;exitDx=0;exitDy=0;entryX=0.5;entryY=0;entryDx=0;entryDy=0;" parent="6VkhnEtyLYSgE16NDFi6-267" source="6VkhnEtyLYSgE16NDFi6-480" target="6VkhnEtyLYSgE16NDFi6-483" edge="1">
                    <mxGeometry relative="1" as="geometry"/>
                </mxCell>
                <mxCell id="6VkhnEtyLYSgE16NDFi6-516" style="edgeStyle=orthogonalEdgeStyle;html=1;exitX=0;exitY=0.5;exitDx=0;exitDy=0;entryX=0.5;entryY=1;entryDx=0;entryDy=0;" parent="6VkhnEtyLYSgE16NDFi6-267" source="6VkhnEtyLYSgE16NDFi6-483" target="6VkhnEtyLYSgE16NDFi6-482" edge="1">
                    <mxGeometry relative="1" as="geometry">
                        <mxPoint x="191" y="1300" as="targetPoint"/>
                    </mxGeometry>
                </mxCell>
                <mxCell id="6VkhnEtyLYSgE16NDFi6-514" value="" style="edgeStyle=orthogonalEdgeStyle;html=1;exitX=0.5;exitY=1;exitDx=0;exitDy=0;" parent="6VkhnEtyLYSgE16NDFi6-267" source="6VkhnEtyLYSgE16NDFi6-505" target="6VkhnEtyLYSgE16NDFi6-510" edge="1">
                    <mxGeometry relative="1" as="geometry">
                        <mxPoint x="395" y="1075" as="sourcePoint"/>
                    </mxGeometry>
                </mxCell>
                <mxCell id="6VkhnEtyLYSgE16NDFi6-533" style="edgeStyle=orthogonalEdgeStyle;html=1;entryX=0.5;entryY=0;entryDx=0;entryDy=0;exitX=1;exitY=0.5;exitDx=0;exitDy=0;" parent="6VkhnEtyLYSgE16NDFi6-267" source="6VkhnEtyLYSgE16NDFi6-529" target="d77ejMVqEmM0quviTSSw-16" edge="1">
                    <mxGeometry relative="1" as="geometry">
                        <mxPoint x="722" y="440.0000000000001" as="targetPoint"/>
                    </mxGeometry>
                </mxCell>
                <mxCell id="6VkhnEtyLYSgE16NDFi6-535" style="edgeStyle=orthogonalEdgeStyle;html=1;exitX=0.5;exitY=1;exitDx=0;exitDy=0;entryX=0.5;entryY=0;entryDx=0;entryDy=0;" parent="6VkhnEtyLYSgE16NDFi6-267" source="6VkhnEtyLYSgE16NDFi6-529" target="6VkhnEtyLYSgE16NDFi6-490" edge="1">
                    <mxGeometry relative="1" as="geometry">
                        <Array as="points">
                            <mxPoint x="596" y="394"/>
                            <mxPoint x="446" y="394"/>
                        </Array>
                    </mxGeometry>
                </mxCell>
                <mxCell id="d77ejMVqEmM0quviTSSw-12" value="" style="edgeStyle=orthogonalEdgeStyle;html=1;exitX=0.5;exitY=1;exitDx=0;exitDy=0;entryX=0.5;entryY=0;entryDx=0;entryDy=0;" parent="6VkhnEtyLYSgE16NDFi6-267" source="d77ejMVqEmM0quviTSSw-7" target="ZYzJCUJ963EIOgTeUIox-3" edge="1">
                    <mxGeometry relative="1" as="geometry">
                        <mxPoint x="372" y="314" as="targetPoint"/>
                        <Array as="points">
                            <mxPoint x="401" y="294"/>
                            <mxPoint x="244" y="294"/>
                        </Array>
                    </mxGeometry>
                </mxCell>
                <mxCell id="d77ejMVqEmM0quviTSSw-13" style="edgeStyle=orthogonalEdgeStyle;html=1;entryX=0;entryY=0.5;entryDx=0;entryDy=0;exitX=1;exitY=0.5;exitDx=0;exitDy=0;" parent="6VkhnEtyLYSgE16NDFi6-267" source="d77ejMVqEmM0quviTSSw-11" target="6VkhnEtyLYSgE16NDFi6-529" edge="1">
                    <mxGeometry relative="1" as="geometry">
                        <Array as="points">
                            <mxPoint x="382" y="470"/>
                            <mxPoint x="382" y="354"/>
                            <mxPoint x="482" y="354"/>
                            <mxPoint x="482" y="230"/>
                        </Array>
                    </mxGeometry>
                </mxCell>
                <mxCell id="d77ejMVqEmM0quviTSSw-14" style="edgeStyle=orthogonalEdgeStyle;html=1;entryX=0.5;entryY=1;entryDx=0;entryDy=0;" parent="6VkhnEtyLYSgE16NDFi6-267" source="d77ejMVqEmM0quviTSSw-11" target="6VkhnEtyLYSgE16NDFi6-482" edge="1">
                    <mxGeometry relative="1" as="geometry">
                        <mxPoint x="208" y="434" as="targetPoint"/>
                    </mxGeometry>
                </mxCell>
                <mxCell id="d77ejMVqEmM0quviTSSw-19" style="edgeStyle=orthogonalEdgeStyle;html=1;entryX=0.5;entryY=0;entryDx=0;entryDy=0;" parent="6VkhnEtyLYSgE16NDFi6-267" source="d77ejMVqEmM0quviTSSw-16" target="d77ejMVqEmM0quviTSSw-32" edge="1">
                    <mxGeometry relative="1" as="geometry">
                        <mxPoint x="705" y="744" as="targetPoint"/>
                    </mxGeometry>
                </mxCell>
                <mxCell id="d77ejMVqEmM0quviTSSw-22" value="" style="edgeStyle=orthogonalEdgeStyle;html=1;" parent="6VkhnEtyLYSgE16NDFi6-267" source="d77ejMVqEmM0quviTSSw-18" target="d77ejMVqEmM0quviTSSw-21" edge="1">
                    <mxGeometry relative="1" as="geometry"/>
                </mxCell>
                <mxCell id="d77ejMVqEmM0quviTSSw-23" style="edgeStyle=orthogonalEdgeStyle;html=1;entryX=1;entryY=0.5;entryDx=0;entryDy=0;exitX=1;exitY=0.5;exitDx=0;exitDy=0;" parent="6VkhnEtyLYSgE16NDFi6-267" source="d77ejMVqEmM0quviTSSw-21" target="d77ejMVqEmM0quviTSSw-16" edge="1">
                    <mxGeometry relative="1" as="geometry">
                        <Array as="points">
                            <mxPoint x="792" y="1430"/>
                            <mxPoint x="792" y="590"/>
                        </Array>
                    </mxGeometry>
                </mxCell>
                <mxCell id="d77ejMVqEmM0quviTSSw-24" style="edgeStyle=orthogonalEdgeStyle;html=1;entryX=1;entryY=0.5;entryDx=0;entryDy=0;" parent="6VkhnEtyLYSgE16NDFi6-267" source="d77ejMVqEmM0quviTSSw-21" target="6VkhnEtyLYSgE16NDFi6-490" edge="1">
                    <mxGeometry relative="1" as="geometry"/>
                </mxCell>
                <mxCell id="d77ejMVqEmM0quviTSSw-25" style="edgeStyle=orthogonalEdgeStyle;html=1;entryX=1;entryY=0.5;entryDx=0;entryDy=0;exitX=1;exitY=0.5;exitDx=0;exitDy=0;" parent="6VkhnEtyLYSgE16NDFi6-267" source="d77ejMVqEmM0quviTSSw-18" target="d77ejMVqEmM0quviTSSw-16" edge="1">
                    <mxGeometry relative="1" as="geometry">
                        <Array as="points">
                            <mxPoint x="792" y="1070"/>
                            <mxPoint x="792" y="590"/>
                        </Array>
                    </mxGeometry>
                </mxCell>
                <mxCell id="d77ejMVqEmM0quviTSSw-33" style="edgeStyle=orthogonalEdgeStyle;html=1;entryX=0.5;entryY=0;entryDx=0;entryDy=0;" parent="6VkhnEtyLYSgE16NDFi6-267" source="d77ejMVqEmM0quviTSSw-32" target="d77ejMVqEmM0quviTSSw-18" edge="1">
                    <mxGeometry relative="1" as="geometry"/>
                </mxCell>
                <mxCell id="d77ejMVqEmM0quviTSSw-35" style="edgeStyle=orthogonalEdgeStyle;html=1;exitX=1;exitY=0.5;exitDx=0;exitDy=0;entryX=1;entryY=0.5;entryDx=0;entryDy=0;" parent="6VkhnEtyLYSgE16NDFi6-267" source="d77ejMVqEmM0quviTSSw-32" target="d77ejMVqEmM0quviTSSw-16" edge="1">
                    <mxGeometry relative="1" as="geometry">
                        <Array as="points">
                            <mxPoint x="792" y="710"/>
                            <mxPoint x="792" y="590"/>
                        </Array>
                    </mxGeometry>
                </mxCell>
                <mxCell id="ZYzJCUJ963EIOgTeUIox-4" style="edgeStyle=orthogonalEdgeStyle;html=1;entryX=0.5;entryY=0;entryDx=0;entryDy=0;" parent="6VkhnEtyLYSgE16NDFi6-267" source="ZYzJCUJ963EIOgTeUIox-3" target="d77ejMVqEmM0quviTSSw-11" edge="1">
                    <mxGeometry relative="1" as="geometry">
                        <mxPoint x="285" y="470" as="targetPoint"/>
                    </mxGeometry>
                </mxCell>
            </root>
        </mxGraphModel>
    </diagram>
    <diagram name="Copy of flow" id="DZCcHu4WA8NR2mgKkg8k">
        <mxGraphModel dx="816" dy="1575" grid="1" gridSize="10" guides="1" tooltips="1" connect="1" arrows="1" fold="1" page="1" pageScale="1" pageWidth="850" pageHeight="1100" math="0" shadow="0">
            <root>
                <mxCell id="6U433vsGyBR7XIGCky3k-0"/>
                <mxCell id="6U433vsGyBR7XIGCky3k-1" parent="6U433vsGyBR7XIGCky3k-0"/>
                <mxCell id="6U433vsGyBR7XIGCky3k-2" value="Request" style="swimlane;childLayout=stackLayout;resizeParent=1;resizeParentMax=0;startSize=20;" parent="6U433vsGyBR7XIGCky3k-1" vertex="1">
                    <mxGeometry x="50" y="-1020" width="1390" height="400" as="geometry"/>
                </mxCell>
                <mxCell id="6U433vsGyBR7XIGCky3k-3" value="User" style="swimlane;startSize=20;" parent="6U433vsGyBR7XIGCky3k-2" vertex="1">
                    <mxGeometry y="20" width="170" height="380" as="geometry"/>
                </mxCell>
                <mxCell id="6U433vsGyBR7XIGCky3k-4" value="Start" style="ellipse;whiteSpace=wrap;html=1;" parent="6U433vsGyBR7XIGCky3k-3" vertex="1">
                    <mxGeometry x="56" y="40" width="80" height="40" as="geometry"/>
                </mxCell>
                <mxCell id="6U433vsGyBR7XIGCky3k-5" value="" style="edgeStyle=orthogonalEdgeStyle;html=1;" parent="6U433vsGyBR7XIGCky3k-3" source="6U433vsGyBR7XIGCky3k-6" target="6U433vsGyBR7XIGCky3k-8" edge="1">
                    <mxGeometry relative="1" as="geometry"/>
                </mxCell>
                <mxCell id="6U433vsGyBR7XIGCky3k-6" value="Request" style="whiteSpace=wrap;html=1;" parent="6U433vsGyBR7XIGCky3k-3" vertex="1">
                    <mxGeometry x="45" y="128" width="102" height="32" as="geometry"/>
                </mxCell>
                <mxCell id="6U433vsGyBR7XIGCky3k-7" value="" style="edgeStyle=none;html=1;" parent="6U433vsGyBR7XIGCky3k-3" source="6U433vsGyBR7XIGCky3k-4" target="6U433vsGyBR7XIGCky3k-6" edge="1">
                    <mxGeometry relative="1" as="geometry"/>
                </mxCell>
                <mxCell id="6U433vsGyBR7XIGCky3k-8" value="Submit" style="whiteSpace=wrap;html=1;" parent="6U433vsGyBR7XIGCky3k-3" vertex="1">
                    <mxGeometry x="45" y="210" width="102" height="32" as="geometry"/>
                </mxCell>
                <mxCell id="6U433vsGyBR7XIGCky3k-9" style="edgeStyle=orthogonalEdgeStyle;html=1;entryX=0.5;entryY=1;entryDx=0;entryDy=0;" parent="6U433vsGyBR7XIGCky3k-3" source="6U433vsGyBR7XIGCky3k-10" target="6U433vsGyBR7XIGCky3k-8" edge="1">
                    <mxGeometry relative="1" as="geometry"/>
                </mxCell>
                <mxCell id="6U433vsGyBR7XIGCky3k-10" value="Edit" style="whiteSpace=wrap;html=1;" parent="6U433vsGyBR7XIGCky3k-3" vertex="1">
                    <mxGeometry x="45" y="300" width="102" height="32" as="geometry"/>
                </mxCell>
                <mxCell id="6U433vsGyBR7XIGCky3k-11" value="SM User" style="swimlane;startSize=20;" parent="6U433vsGyBR7XIGCky3k-2" vertex="1">
                    <mxGeometry x="170" y="20" width="159" height="380" as="geometry"/>
                </mxCell>
                <mxCell id="6U433vsGyBR7XIGCky3k-12" value="Approve" style="rhombus;whiteSpace=wrap;html=1;" parent="6U433vsGyBR7XIGCky3k-11" vertex="1">
                    <mxGeometry x="39.5" y="204" width="80" height="44" as="geometry"/>
                </mxCell>
                <mxCell id="6U433vsGyBR7XIGCky3k-13" value="Yes" style="text;html=1;align=center;verticalAlign=middle;resizable=0;points=[];autosize=1;strokeColor=none;fillColor=none;" parent="6U433vsGyBR7XIGCky3k-11" vertex="1">
                    <mxGeometry x="110" y="199" width="40" height="30" as="geometry"/>
                </mxCell>
                <mxCell id="6U433vsGyBR7XIGCky3k-14" value="VP User" style="swimlane;startSize=20;" parent="6U433vsGyBR7XIGCky3k-2" vertex="1">
                    <mxGeometry x="329" y="20" width="130" height="380" as="geometry"/>
                </mxCell>
                <mxCell id="6U433vsGyBR7XIGCky3k-15" value="Approve" style="rhombus;whiteSpace=wrap;html=1;" parent="6U433vsGyBR7XIGCky3k-14" vertex="1">
                    <mxGeometry x="25" y="204" width="80" height="44" as="geometry"/>
                </mxCell>
                <mxCell id="6U433vsGyBR7XIGCky3k-16" value="Yes" style="text;html=1;align=center;verticalAlign=middle;resizable=0;points=[];autosize=1;strokeColor=none;fillColor=none;" parent="6U433vsGyBR7XIGCky3k-14" vertex="1">
                    <mxGeometry x="65" y="175" width="40" height="30" as="geometry"/>
                </mxCell>
                <mxCell id="6U433vsGyBR7XIGCky3k-17" value="Finance" style="swimlane;startSize=20;" parent="6U433vsGyBR7XIGCky3k-2" vertex="1">
                    <mxGeometry x="459" y="20" width="135" height="380" as="geometry"/>
                </mxCell>
                <mxCell id="6U433vsGyBR7XIGCky3k-18" value="Approve" style="rhombus;whiteSpace=wrap;html=1;" parent="6U433vsGyBR7XIGCky3k-17" vertex="1">
                    <mxGeometry x="27.5" y="204" width="80" height="44" as="geometry"/>
                </mxCell>
                <mxCell id="6U433vsGyBR7XIGCky3k-19" value="Yes" style="text;html=1;align=center;verticalAlign=middle;resizable=0;points=[];autosize=1;strokeColor=none;fillColor=none;" parent="6U433vsGyBR7XIGCky3k-17" vertex="1">
                    <mxGeometry x="95" y="198" width="40" height="30" as="geometry"/>
                </mxCell>
                <mxCell id="6U433vsGyBR7XIGCky3k-20" style="edgeStyle=orthogonalEdgeStyle;html=1;entryX=0.5;entryY=0;entryDx=0;entryDy=0;" parent="6U433vsGyBR7XIGCky3k-17" source="6U433vsGyBR7XIGCky3k-21" target="6U433vsGyBR7XIGCky3k-18" edge="1">
                    <mxGeometry relative="1" as="geometry"/>
                </mxCell>
                <mxCell id="6U433vsGyBR7XIGCky3k-21" value="Analisa/&lt;br&gt;Verification" style="whiteSpace=wrap;html=1;" parent="6U433vsGyBR7XIGCky3k-17" vertex="1">
                    <mxGeometry x="16.5" y="128" width="102" height="32" as="geometry"/>
                </mxCell>
                <mxCell id="6U433vsGyBR7XIGCky3k-22" value="SM Finance" style="swimlane;startSize=20;" parent="6U433vsGyBR7XIGCky3k-2" vertex="1">
                    <mxGeometry x="594" y="20" width="132.5" height="380" as="geometry"/>
                </mxCell>
                <mxCell id="6U433vsGyBR7XIGCky3k-23" value="Approve" style="rhombus;whiteSpace=wrap;html=1;" parent="6U433vsGyBR7XIGCky3k-22" vertex="1">
                    <mxGeometry x="26.25" y="204" width="80" height="44" as="geometry"/>
                </mxCell>
                <mxCell id="6U433vsGyBR7XIGCky3k-24" value="Yes" style="text;html=1;align=center;verticalAlign=middle;resizable=0;points=[];autosize=1;strokeColor=none;fillColor=none;" parent="6U433vsGyBR7XIGCky3k-22" vertex="1">
                    <mxGeometry x="92.5" y="198" width="40" height="30" as="geometry"/>
                </mxCell>
                <mxCell id="6U433vsGyBR7XIGCky3k-25" value="VP Finance" style="swimlane;startSize=20;" parent="6U433vsGyBR7XIGCky3k-2" vertex="1">
                    <mxGeometry x="726.5" y="20" width="133.75" height="380" as="geometry"/>
                </mxCell>
                <mxCell id="6U433vsGyBR7XIGCky3k-26" value="Approve" style="rhombus;whiteSpace=wrap;html=1;" parent="6U433vsGyBR7XIGCky3k-25" vertex="1">
                    <mxGeometry x="26.88" y="204" width="80" height="44" as="geometry"/>
                </mxCell>
                <mxCell id="6U433vsGyBR7XIGCky3k-27" value="Yes" style="text;html=1;align=center;verticalAlign=middle;resizable=0;points=[];autosize=1;strokeColor=none;fillColor=none;" parent="6U433vsGyBR7XIGCky3k-25" vertex="1">
                    <mxGeometry x="66.88" y="175" width="40" height="30" as="geometry"/>
                </mxCell>
                <mxCell id="6U433vsGyBR7XIGCky3k-28" value="SM Treasury" style="swimlane;startSize=20;" parent="6U433vsGyBR7XIGCky3k-2" vertex="1">
                    <mxGeometry x="860.25" y="20" width="133.13" height="380" as="geometry"/>
                </mxCell>
                <mxCell id="6U433vsGyBR7XIGCky3k-29" value="Approve" style="rhombus;whiteSpace=wrap;html=1;" parent="6U433vsGyBR7XIGCky3k-28" vertex="1">
                    <mxGeometry x="26.559999999999995" y="204" width="80" height="44" as="geometry"/>
                </mxCell>
                <mxCell id="6U433vsGyBR7XIGCky3k-30" value="Yes" style="text;html=1;align=center;verticalAlign=middle;resizable=0;points=[];autosize=1;strokeColor=none;fillColor=none;" parent="6U433vsGyBR7XIGCky3k-28" vertex="1">
                    <mxGeometry x="93.13000000000005" y="198" width="40" height="30" as="geometry"/>
                </mxCell>
                <mxCell id="6U433vsGyBR7XIGCky3k-31" style="edgeStyle=orthogonalEdgeStyle;html=1;entryX=0.5;entryY=0;entryDx=0;entryDy=0;" parent="6U433vsGyBR7XIGCky3k-28" source="6U433vsGyBR7XIGCky3k-32" target="6U433vsGyBR7XIGCky3k-29" edge="1">
                    <mxGeometry relative="1" as="geometry"/>
                </mxCell>
                <mxCell id="6U433vsGyBR7XIGCky3k-32" value="Analisa/&lt;br&gt;Verification" style="whiteSpace=wrap;html=1;" parent="6U433vsGyBR7XIGCky3k-28" vertex="1">
                    <mxGeometry x="15.569999999999936" y="130" width="102" height="32" as="geometry"/>
                </mxCell>
                <mxCell id="6U433vsGyBR7XIGCky3k-33" value="" style="edgeStyle=orthogonalEdgeStyle;html=1;" parent="6U433vsGyBR7XIGCky3k-2" source="6U433vsGyBR7XIGCky3k-12" target="6U433vsGyBR7XIGCky3k-15" edge="1">
                    <mxGeometry relative="1" as="geometry"/>
                </mxCell>
                <mxCell id="6U433vsGyBR7XIGCky3k-34" value="" style="edgeStyle=orthogonalEdgeStyle;html=1;entryX=0;entryY=0.5;entryDx=0;entryDy=0;exitX=0.5;exitY=0;exitDx=0;exitDy=0;" parent="6U433vsGyBR7XIGCky3k-2" source="6U433vsGyBR7XIGCky3k-15" target="6U433vsGyBR7XIGCky3k-21" edge="1">
                    <mxGeometry relative="1" as="geometry"/>
                </mxCell>
                <mxCell id="6U433vsGyBR7XIGCky3k-35" value="" style="edgeStyle=orthogonalEdgeStyle;html=1;" parent="6U433vsGyBR7XIGCky3k-2" source="6U433vsGyBR7XIGCky3k-18" target="6U433vsGyBR7XIGCky3k-23" edge="1">
                    <mxGeometry relative="1" as="geometry"/>
                </mxCell>
                <mxCell id="6U433vsGyBR7XIGCky3k-36" value="" style="edgeStyle=orthogonalEdgeStyle;html=1;" parent="6U433vsGyBR7XIGCky3k-2" source="6U433vsGyBR7XIGCky3k-23" target="6U433vsGyBR7XIGCky3k-26" edge="1">
                    <mxGeometry relative="1" as="geometry"/>
                </mxCell>
                <mxCell id="6U433vsGyBR7XIGCky3k-37" value="" style="edgeStyle=orthogonalEdgeStyle;html=1;entryX=0;entryY=0.5;entryDx=0;entryDy=0;exitX=0.5;exitY=0;exitDx=0;exitDy=0;" parent="6U433vsGyBR7XIGCky3k-2" source="6U433vsGyBR7XIGCky3k-26" target="6U433vsGyBR7XIGCky3k-32" edge="1">
                    <mxGeometry relative="1" as="geometry"/>
                </mxCell>
                <mxCell id="6U433vsGyBR7XIGCky3k-38" value="VP Treasury" style="swimlane;startSize=20;" parent="6U433vsGyBR7XIGCky3k-2" vertex="1">
                    <mxGeometry x="993.38" y="20" width="256.62" height="380" as="geometry"/>
                </mxCell>
                <mxCell id="6U433vsGyBR7XIGCky3k-39" value="" style="edgeStyle=orthogonalEdgeStyle;html=1;" parent="6U433vsGyBR7XIGCky3k-38" source="6U433vsGyBR7XIGCky3k-40" target="6U433vsGyBR7XIGCky3k-42" edge="1">
                    <mxGeometry relative="1" as="geometry"/>
                </mxCell>
                <mxCell id="6U433vsGyBR7XIGCky3k-40" value="Approve" style="rhombus;whiteSpace=wrap;html=1;" parent="6U433vsGyBR7XIGCky3k-38" vertex="1">
                    <mxGeometry x="33.309999999999896" y="204" width="80" height="44" as="geometry"/>
                </mxCell>
                <mxCell id="6U433vsGyBR7XIGCky3k-41" value="Yes" style="text;html=1;align=center;verticalAlign=middle;resizable=0;points=[];autosize=1;strokeColor=none;fillColor=none;" parent="6U433vsGyBR7XIGCky3k-38" vertex="1">
                    <mxGeometry x="96.61999999999989" y="198" width="40" height="30" as="geometry"/>
                </mxCell>
                <mxCell id="6U433vsGyBR7XIGCky3k-42" value="&amp;gt; $10.000" style="rhombus;whiteSpace=wrap;html=1;" parent="6U433vsGyBR7XIGCky3k-38" vertex="1">
                    <mxGeometry x="151.62" y="191" width="80" height="70" as="geometry"/>
                </mxCell>
                <mxCell id="6U433vsGyBR7XIGCky3k-43" value="Yes" style="text;html=1;align=center;verticalAlign=middle;resizable=0;points=[];autosize=1;strokeColor=none;fillColor=none;" parent="6U433vsGyBR7XIGCky3k-38" vertex="1">
                    <mxGeometry x="216.6199999999999" y="197" width="40" height="30" as="geometry"/>
                </mxCell>
                <mxCell id="6U433vsGyBR7XIGCky3k-44" value="Director Finance" style="swimlane;startSize=20;" parent="6U433vsGyBR7XIGCky3k-2" vertex="1">
                    <mxGeometry x="1250" y="20" width="140" height="380" as="geometry"/>
                </mxCell>
                <mxCell id="6U433vsGyBR7XIGCky3k-45" style="edgeStyle=orthogonalEdgeStyle;html=1;entryX=0.5;entryY=1;entryDx=0;entryDy=0;" parent="6U433vsGyBR7XIGCky3k-44" source="6U433vsGyBR7XIGCky3k-46" target="6U433vsGyBR7XIGCky3k-47" edge="1">
                    <mxGeometry relative="1" as="geometry"/>
                </mxCell>
                <mxCell id="6U433vsGyBR7XIGCky3k-46" value="Approve" style="rhombus;whiteSpace=wrap;html=1;" parent="6U433vsGyBR7XIGCky3k-44" vertex="1">
                    <mxGeometry x="29.999999999999996" y="204" width="80" height="44" as="geometry"/>
                </mxCell>
                <mxCell id="6U433vsGyBR7XIGCky3k-47" value="End" style="ellipse;whiteSpace=wrap;html=1;" parent="6U433vsGyBR7XIGCky3k-44" vertex="1">
                    <mxGeometry x="30.000000000000057" y="60" width="80" height="42" as="geometry"/>
                </mxCell>
                <mxCell id="6U433vsGyBR7XIGCky3k-48" value="Yes" style="text;html=1;align=center;verticalAlign=middle;resizable=0;points=[];autosize=1;strokeColor=none;fillColor=none;" parent="6U433vsGyBR7XIGCky3k-44" vertex="1">
                    <mxGeometry x="75" y="174" width="40" height="30" as="geometry"/>
                </mxCell>
                <mxCell id="6U433vsGyBR7XIGCky3k-49" value="" style="edgeStyle=orthogonalEdgeStyle;html=1;" parent="6U433vsGyBR7XIGCky3k-2" source="6U433vsGyBR7XIGCky3k-29" target="6U433vsGyBR7XIGCky3k-40" edge="1">
                    <mxGeometry relative="1" as="geometry"/>
                </mxCell>
                <mxCell id="6U433vsGyBR7XIGCky3k-50" value="" style="edgeStyle=orthogonalEdgeStyle;html=1;exitX=1;exitY=0.5;exitDx=0;exitDy=0;" parent="6U433vsGyBR7XIGCky3k-2" source="6U433vsGyBR7XIGCky3k-42" target="6U433vsGyBR7XIGCky3k-46" edge="1">
                    <mxGeometry relative="1" as="geometry">
                        <mxPoint x="1200" y="150" as="sourcePoint"/>
                    </mxGeometry>
                </mxCell>
                <mxCell id="6U433vsGyBR7XIGCky3k-51" style="edgeStyle=orthogonalEdgeStyle;html=1;exitX=1;exitY=0.5;exitDx=0;exitDy=0;entryX=0;entryY=0.5;entryDx=0;entryDy=0;" parent="6U433vsGyBR7XIGCky3k-2" source="6U433vsGyBR7XIGCky3k-8" target="6U433vsGyBR7XIGCky3k-12" edge="1">
                    <mxGeometry relative="1" as="geometry"/>
                </mxCell>
                <mxCell id="6U433vsGyBR7XIGCky3k-52" style="edgeStyle=orthogonalEdgeStyle;html=1;exitX=0.5;exitY=1;exitDx=0;exitDy=0;entryX=1;entryY=0.5;entryDx=0;entryDy=0;" parent="6U433vsGyBR7XIGCky3k-2" source="6U433vsGyBR7XIGCky3k-12" target="6U433vsGyBR7XIGCky3k-10" edge="1">
                    <mxGeometry relative="1" as="geometry">
                        <mxPoint x="250" y="310" as="targetPoint"/>
                    </mxGeometry>
                </mxCell>
                <mxCell id="6U433vsGyBR7XIGCky3k-53" style="edgeStyle=orthogonalEdgeStyle;html=1;exitX=0.5;exitY=1;exitDx=0;exitDy=0;entryX=1;entryY=0.5;entryDx=0;entryDy=0;" parent="6U433vsGyBR7XIGCky3k-2" source="6U433vsGyBR7XIGCky3k-15" target="6U433vsGyBR7XIGCky3k-10" edge="1">
                    <mxGeometry relative="1" as="geometry"/>
                </mxCell>
                <mxCell id="6U433vsGyBR7XIGCky3k-54" style="edgeStyle=orthogonalEdgeStyle;html=1;exitX=0.5;exitY=1;exitDx=0;exitDy=0;entryX=1;entryY=0.5;entryDx=0;entryDy=0;" parent="6U433vsGyBR7XIGCky3k-2" source="6U433vsGyBR7XIGCky3k-18" target="6U433vsGyBR7XIGCky3k-10" edge="1">
                    <mxGeometry relative="1" as="geometry"/>
                </mxCell>
                <mxCell id="6U433vsGyBR7XIGCky3k-55" style="edgeStyle=orthogonalEdgeStyle;html=1;entryX=1;entryY=0.5;entryDx=0;entryDy=0;exitX=0.5;exitY=1;exitDx=0;exitDy=0;" parent="6U433vsGyBR7XIGCky3k-2" source="6U433vsGyBR7XIGCky3k-23" target="6U433vsGyBR7XIGCky3k-10" edge="1">
                    <mxGeometry relative="1" as="geometry"/>
                </mxCell>
                <mxCell id="6U433vsGyBR7XIGCky3k-56" style="edgeStyle=orthogonalEdgeStyle;html=1;exitX=0.5;exitY=1;exitDx=0;exitDy=0;entryX=1;entryY=0.5;entryDx=0;entryDy=0;" parent="6U433vsGyBR7XIGCky3k-2" source="6U433vsGyBR7XIGCky3k-26" target="6U433vsGyBR7XIGCky3k-10" edge="1">
                    <mxGeometry relative="1" as="geometry">
                        <mxPoint x="220" y="380" as="targetPoint"/>
                    </mxGeometry>
                </mxCell>
                <mxCell id="6U433vsGyBR7XIGCky3k-57" style="edgeStyle=orthogonalEdgeStyle;html=1;entryX=1;entryY=0.5;entryDx=0;entryDy=0;exitX=0.5;exitY=1;exitDx=0;exitDy=0;" parent="6U433vsGyBR7XIGCky3k-2" source="6U433vsGyBR7XIGCky3k-29" target="6U433vsGyBR7XIGCky3k-10" edge="1">
                    <mxGeometry relative="1" as="geometry">
                        <mxPoint x="926.81" y="360" as="targetPoint"/>
                    </mxGeometry>
                </mxCell>
                <mxCell id="6U433vsGyBR7XIGCky3k-58" style="edgeStyle=orthogonalEdgeStyle;html=1;entryX=1;entryY=0.5;entryDx=0;entryDy=0;exitX=0.5;exitY=1;exitDx=0;exitDy=0;" parent="6U433vsGyBR7XIGCky3k-2" source="6U433vsGyBR7XIGCky3k-40" target="6U433vsGyBR7XIGCky3k-10" edge="1">
                    <mxGeometry relative="1" as="geometry"/>
                </mxCell>
                <mxCell id="6U433vsGyBR7XIGCky3k-59" style="edgeStyle=orthogonalEdgeStyle;html=1;exitX=0.5;exitY=1;exitDx=0;exitDy=0;entryX=1;entryY=0.5;entryDx=0;entryDy=0;" parent="6U433vsGyBR7XIGCky3k-2" source="6U433vsGyBR7XIGCky3k-46" target="6U433vsGyBR7XIGCky3k-10" edge="1">
                    <mxGeometry relative="1" as="geometry">
                        <mxPoint x="760" y="350" as="targetPoint"/>
                    </mxGeometry>
                </mxCell>
                <mxCell id="6U433vsGyBR7XIGCky3k-60" style="edgeStyle=orthogonalEdgeStyle;html=1;entryX=0;entryY=0.5;entryDx=0;entryDy=0;exitX=0.5;exitY=0;exitDx=0;exitDy=0;" parent="6U433vsGyBR7XIGCky3k-2" source="6U433vsGyBR7XIGCky3k-42" target="6U433vsGyBR7XIGCky3k-47" edge="1">
                    <mxGeometry relative="1" as="geometry">
                        <mxPoint x="1200" y="170" as="sourcePoint"/>
                        <Array as="points">
                            <mxPoint x="1185" y="101"/>
                        </Array>
                    </mxGeometry>
                </mxCell>
            </root>
        </mxGraphModel>
    </diagram>
    <diagram id="PTXUU7Y-hOaifOK0okCy" name="use case">
        <mxGraphModel dx="816" dy="475" grid="1" gridSize="10" guides="1" tooltips="1" connect="1" arrows="1" fold="1" page="1" pageScale="1" pageWidth="850" pageHeight="1100" math="0" shadow="0">
            <root>
                <mxCell id="bnfdPx3OsxpUxmwKXuvX-0"/>
                <mxCell id="bnfdPx3OsxpUxmwKXuvX-1" parent="bnfdPx3OsxpUxmwKXuvX-0"/>
                <mxCell id="TIGIoeEqmDQJ_TPl5PH_-1" style="rounded=1;html=1;strokeColor=default;endArrow=none;endFill=0;entryX=0;entryY=0.5;entryDx=0;entryDy=0;exitX=1;exitY=0.3333333333333333;exitDx=0;exitDy=0;exitPerimeter=0;" parent="bnfdPx3OsxpUxmwKXuvX-1" source="bnfdPx3OsxpUxmwKXuvX-2" target="bnfdPx3OsxpUxmwKXuvX-3" edge="1">
                    <mxGeometry relative="1" as="geometry">
                        <mxPoint x="180" y="110" as="targetPoint"/>
                    </mxGeometry>
                </mxCell>
                <mxCell id="ifQbI9FNUUDl3qRynOm3-6" style="edgeStyle=none;rounded=1;html=1;exitX=1;exitY=0.3333333333333333;exitDx=0;exitDy=0;exitPerimeter=0;endArrow=none;endFill=0;strokeColor=default;entryX=0;entryY=0.5;entryDx=0;entryDy=0;" parent="bnfdPx3OsxpUxmwKXuvX-1" source="H75N8LXMlPfQLFd8FxEW-6" target="ifQbI9FNUUDl3qRynOm3-2" edge="1">
                    <mxGeometry relative="1" as="geometry">
                        <mxPoint x="190" y="590" as="targetPoint"/>
                    </mxGeometry>
                </mxCell>
                <mxCell id="bnfdPx3OsxpUxmwKXuvX-2" value="User" style="shape=umlActor;verticalLabelPosition=bottom;verticalAlign=top;html=1;outlineConnect=0;" parent="bnfdPx3OsxpUxmwKXuvX-1" vertex="1">
                    <mxGeometry x="50" y="110" width="30" height="60" as="geometry"/>
                </mxCell>
                <mxCell id="QWBXZVsK699R1kp0Fcie-0" value="" style="swimlane;startSize=0;" parent="bnfdPx3OsxpUxmwKXuvX-1" vertex="1">
                    <mxGeometry x="140" y="30" width="520" height="750" as="geometry"/>
                </mxCell>
                <mxCell id="ifQbI9FNUUDl3qRynOm3-2" value="Need Approval" style="ellipse;whiteSpace=wrap;html=1;" parent="QWBXZVsK699R1kp0Fcie-0" vertex="1">
                    <mxGeometry x="191" y="328" width="99" height="50" as="geometry"/>
                </mxCell>
                <mxCell id="bnfdPx3OsxpUxmwKXuvX-4" value="Create Request" style="ellipse;whiteSpace=wrap;html=1;" parent="QWBXZVsK699R1kp0Fcie-0" vertex="1">
                    <mxGeometry x="306" y="100" width="84" height="40" as="geometry"/>
                </mxCell>
                <mxCell id="qB6uWl-qiW3buQUqxAzC-34" style="edgeStyle=none;rounded=1;html=1;exitX=1;exitY=0.5;exitDx=0;exitDy=0;entryX=0;entryY=0.5;entryDx=0;entryDy=0;endArrow=none;endFill=0;strokeColor=default;dashed=1;dashPattern=1 2;" parent="QWBXZVsK699R1kp0Fcie-0" source="bnfdPx3OsxpUxmwKXuvX-3" target="qB6uWl-qiW3buQUqxAzC-35" edge="1">
                    <mxGeometry relative="1" as="geometry">
                        <mxPoint x="286" y="200" as="sourcePoint"/>
                    </mxGeometry>
                </mxCell>
                <mxCell id="qB6uWl-qiW3buQUqxAzC-35" value="List &amp;amp; View Request" style="ellipse;whiteSpace=wrap;html=1;" parent="QWBXZVsK699R1kp0Fcie-0" vertex="1">
                    <mxGeometry x="230" y="25" width="89" height="40" as="geometry"/>
                </mxCell>
                <mxCell id="qB6uWl-qiW3buQUqxAzC-36" style="edgeStyle=none;rounded=1;html=1;exitX=1;exitY=0.5;exitDx=0;exitDy=0;entryX=0.5;entryY=0;entryDx=0;entryDy=0;endArrow=none;endFill=0;strokeColor=default;dashed=1;dashPattern=1 2;" parent="QWBXZVsK699R1kp0Fcie-0" source="bnfdPx3OsxpUxmwKXuvX-3" target="qB6uWl-qiW3buQUqxAzC-37" edge="1">
                    <mxGeometry relative="1" as="geometry">
                        <mxPoint x="286" y="280" as="sourcePoint"/>
                    </mxGeometry>
                </mxCell>
                <mxCell id="qB6uWl-qiW3buQUqxAzC-37" value="Edit Request" style="ellipse;whiteSpace=wrap;html=1;" parent="QWBXZVsK699R1kp0Fcie-0" vertex="1">
                    <mxGeometry x="161.5" y="140" width="81" height="40" as="geometry"/>
                </mxCell>
                <mxCell id="bnfdPx3OsxpUxmwKXuvX-3" value="Request" style="ellipse;whiteSpace=wrap;html=1;" parent="QWBXZVsK699R1kp0Fcie-0" vertex="1">
                    <mxGeometry x="69" y="20" width="84" height="45" as="geometry"/>
                </mxCell>
                <mxCell id="vvXHJaSfdj4S8u-95iw8-3" style="edgeStyle=none;rounded=1;html=1;exitX=1;exitY=0.5;exitDx=0;exitDy=0;entryX=0;entryY=0.5;entryDx=0;entryDy=0;endArrow=none;endFill=0;strokeColor=default;dashed=1;dashPattern=1 2;" parent="QWBXZVsK699R1kp0Fcie-0" source="bnfdPx3OsxpUxmwKXuvX-3" target="bnfdPx3OsxpUxmwKXuvX-4" edge="1">
                    <mxGeometry relative="1" as="geometry"/>
                </mxCell>
                <mxCell id="cvIQdJduSs5EgPtJ4OkU-1" value="Dashboard" style="ellipse;whiteSpace=wrap;html=1;" parent="QWBXZVsK699R1kp0Fcie-0" vertex="1">
                    <mxGeometry x="179" y="238" width="120" height="60" as="geometry"/>
                </mxCell>
                <mxCell id="cvIQdJduSs5EgPtJ4OkU-2" style="edgeStyle=none;rounded=1;html=1;exitX=0.5;exitY=1;exitDx=0;exitDy=0;entryX=0.5;entryY=0;entryDx=0;entryDy=0;endArrow=none;endFill=0;strokeColor=default;dashed=1;dashPattern=1 2;" parent="QWBXZVsK699R1kp0Fcie-0" source="ifQbI9FNUUDl3qRynOm3-2" target="cvIQdJduSs5EgPtJ4OkU-3" edge="1">
                    <mxGeometry relative="1" as="geometry">
                        <mxPoint x="160.5" y="265.5" as="sourcePoint"/>
                    </mxGeometry>
                </mxCell>
                <mxCell id="cvIQdJduSs5EgPtJ4OkU-3" value="Approval" style="ellipse;whiteSpace=wrap;html=1;" parent="QWBXZVsK699R1kp0Fcie-0" vertex="1">
                    <mxGeometry x="130" y="440" width="89" height="40" as="geometry"/>
                </mxCell>
                <mxCell id="cvIQdJduSs5EgPtJ4OkU-5" value="Relocation Budget" style="ellipse;whiteSpace=wrap;html=1;" parent="QWBXZVsK699R1kp0Fcie-0" vertex="1">
                    <mxGeometry x="390" y="10" width="84" height="40" as="geometry"/>
                </mxCell>
                <mxCell id="H75N8LXMlPfQLFd8FxEW-0" value="Report" style="ellipse;whiteSpace=wrap;html=1;" parent="QWBXZVsK699R1kp0Fcie-0" vertex="1">
                    <mxGeometry x="61.5" y="520" width="99" height="50" as="geometry"/>
                </mxCell>
                <mxCell id="H75N8LXMlPfQLFd8FxEW-1" value="Master Data" style="ellipse;whiteSpace=wrap;html=1;" parent="QWBXZVsK699R1kp0Fcie-0" vertex="1">
                    <mxGeometry x="61.5" y="606" width="99" height="50" as="geometry"/>
                </mxCell>
                <mxCell id="H75N8LXMlPfQLFd8FxEW-2" style="edgeStyle=none;rounded=1;html=1;exitX=1;exitY=0.5;exitDx=0;exitDy=0;entryX=0;entryY=0.5;entryDx=0;entryDy=0;endArrow=none;endFill=0;strokeColor=default;dashed=1;dashPattern=1 2;" parent="QWBXZVsK699R1kp0Fcie-0" source="H75N8LXMlPfQLFd8FxEW-1" target="H75N8LXMlPfQLFd8FxEW-3" edge="1">
                    <mxGeometry relative="1" as="geometry">
                        <mxPoint x="171" y="485.5" as="sourcePoint"/>
                    </mxGeometry>
                </mxCell>
                <mxCell id="H75N8LXMlPfQLFd8FxEW-3" value="Budget" style="ellipse;whiteSpace=wrap;html=1;" parent="QWBXZVsK699R1kp0Fcie-0" vertex="1">
                    <mxGeometry x="300" y="553" width="89" height="40" as="geometry"/>
                </mxCell>
                <mxCell id="H75N8LXMlPfQLFd8FxEW-4" style="edgeStyle=none;rounded=1;html=1;exitX=1;exitY=0.5;exitDx=0;exitDy=0;entryX=0;entryY=0.5;entryDx=0;entryDy=0;endArrow=none;endFill=0;strokeColor=default;dashed=1;dashPattern=1 2;" parent="QWBXZVsK699R1kp0Fcie-0" source="H75N8LXMlPfQLFd8FxEW-1" target="H75N8LXMlPfQLFd8FxEW-5" edge="1">
                    <mxGeometry relative="1" as="geometry">
                        <mxPoint x="171" y="556" as="sourcePoint"/>
                    </mxGeometry>
                </mxCell>
                <mxCell id="H75N8LXMlPfQLFd8FxEW-5" value="GL Account" style="ellipse;whiteSpace=wrap;html=1;" parent="QWBXZVsK699R1kp0Fcie-0" vertex="1">
                    <mxGeometry x="400" y="583" width="89" height="40" as="geometry"/>
                </mxCell>
                <mxCell id="H75N8LXMlPfQLFd8FxEW-9" style="edgeStyle=none;rounded=1;html=1;exitX=0.5;exitY=0;exitDx=0;exitDy=0;entryX=0;entryY=0.5;entryDx=0;entryDy=0;endArrow=none;endFill=0;strokeColor=default;dashed=1;dashPattern=1 2;" parent="QWBXZVsK699R1kp0Fcie-0" source="bnfdPx3OsxpUxmwKXuvX-4" target="cvIQdJduSs5EgPtJ4OkU-5" edge="1">
                    <mxGeometry relative="1" as="geometry">
                        <mxPoint x="164.00000000000045" y="147.5" as="sourcePoint"/>
                        <mxPoint x="340.0000000000002" y="130" as="targetPoint"/>
                    </mxGeometry>
                </mxCell>
                <mxCell id="H75N8LXMlPfQLFd8FxEW-10" value="Approve Relocation" style="ellipse;whiteSpace=wrap;html=1;" parent="QWBXZVsK699R1kp0Fcie-0" vertex="1">
                    <mxGeometry x="410" y="100" width="84" height="40" as="geometry"/>
                </mxCell>
                <mxCell id="H75N8LXMlPfQLFd8FxEW-11" style="edgeStyle=none;rounded=1;html=1;exitX=0.5;exitY=0;exitDx=0;exitDy=0;entryX=0.5;entryY=1;entryDx=0;entryDy=0;endArrow=none;endFill=0;strokeColor=default;dashed=1;dashPattern=1 2;" parent="QWBXZVsK699R1kp0Fcie-0" source="H75N8LXMlPfQLFd8FxEW-10" target="cvIQdJduSs5EgPtJ4OkU-5" edge="1">
                    <mxGeometry relative="1" as="geometry">
                        <mxPoint x="423.9999999999998" y="130" as="sourcePoint"/>
                        <mxPoint x="440.0000000000002" y="50" as="targetPoint"/>
                    </mxGeometry>
                </mxCell>
                <mxCell id="bxCHbfFJaJH7GSov7uBA-0" value="Kurs" style="ellipse;whiteSpace=wrap;html=1;" parent="QWBXZVsK699R1kp0Fcie-0" vertex="1">
                    <mxGeometry x="334" y="633" width="89" height="40" as="geometry"/>
                </mxCell>
                <mxCell id="bxCHbfFJaJH7GSov7uBA-1" style="edgeStyle=none;rounded=1;html=1;exitX=1;exitY=0.5;exitDx=0;exitDy=0;entryX=0;entryY=0.5;entryDx=0;entryDy=0;endArrow=none;endFill=0;strokeColor=default;dashed=1;dashPattern=1 2;" parent="QWBXZVsK699R1kp0Fcie-0" source="H75N8LXMlPfQLFd8FxEW-1" target="bxCHbfFJaJH7GSov7uBA-0" edge="1">
                    <mxGeometry relative="1" as="geometry">
                        <mxPoint x="170.4999999999991" y="541" as="sourcePoint"/>
                        <mxPoint x="230.5000000000009" y="566" as="targetPoint"/>
                    </mxGeometry>
                </mxCell>
                <mxCell id="bxCHbfFJaJH7GSov7uBA-2" value="Item Invesment" style="ellipse;whiteSpace=wrap;html=1;" parent="QWBXZVsK699R1kp0Fcie-0" vertex="1">
                    <mxGeometry x="400" y="683" width="89" height="40" as="geometry"/>
                </mxCell>
                <mxCell id="bxCHbfFJaJH7GSov7uBA-3" style="edgeStyle=none;rounded=1;html=1;exitX=1;exitY=0.5;exitDx=0;exitDy=0;entryX=0;entryY=0.5;entryDx=0;entryDy=0;endArrow=none;endFill=0;strokeColor=default;dashed=1;dashPattern=1 2;" parent="QWBXZVsK699R1kp0Fcie-0" source="H75N8LXMlPfQLFd8FxEW-1" target="bxCHbfFJaJH7GSov7uBA-2" edge="1">
                    <mxGeometry relative="1" as="geometry">
                        <mxPoint x="170.4999999999991" y="541" as="sourcePoint"/>
                        <mxPoint x="230.5000000000009" y="636" as="targetPoint"/>
                    </mxGeometry>
                </mxCell>
                <mxCell id="Kvq-qy_fkXs1c3-NVL-2-0" value="HPS" style="ellipse;whiteSpace=wrap;html=1;" parent="QWBXZVsK699R1kp0Fcie-0" vertex="1">
                    <mxGeometry x="201" y="490" width="89" height="40" as="geometry"/>
                </mxCell>
                <mxCell id="Kvq-qy_fkXs1c3-NVL-2-1" style="edgeStyle=none;rounded=1;html=1;exitX=0.5;exitY=1;exitDx=0;exitDy=0;entryX=0.5;entryY=0;entryDx=0;entryDy=0;endArrow=none;endFill=0;strokeColor=default;dashed=1;dashPattern=1 2;" parent="QWBXZVsK699R1kp0Fcie-0" source="ifQbI9FNUUDl3qRynOm3-2" target="Kvq-qy_fkXs1c3-NVL-2-0" edge="1">
                    <mxGeometry relative="1" as="geometry">
                        <mxPoint x="170.4999999999991" y="273" as="sourcePoint"/>
                        <mxPoint x="220.00000000000455" y="273" as="targetPoint"/>
                    </mxGeometry>
                </mxCell>
                <mxCell id="QWBXZVsK699R1kp0Fcie-4" value="Login" style="ellipse;whiteSpace=wrap;html=1;" parent="bnfdPx3OsxpUxmwKXuvX-1" vertex="1">
                    <mxGeometry x="760" y="389.5" width="80" height="30" as="geometry"/>
                </mxCell>
                <mxCell id="QWBXZVsK699R1kp0Fcie-5" style="edgeStyle=none;rounded=1;html=1;exitX=1;exitY=0.5;exitDx=0;exitDy=0;entryX=0;entryY=0.5;entryDx=0;entryDy=0;dashed=1;dashPattern=1 2;endArrow=none;endFill=0;strokeColor=default;" parent="bnfdPx3OsxpUxmwKXuvX-1" source="QWBXZVsK699R1kp0Fcie-0" target="QWBXZVsK699R1kp0Fcie-4" edge="1">
                    <mxGeometry relative="1" as="geometry">
                        <mxPoint x="686" y="243" as="sourcePoint"/>
                        <mxPoint x="775" y="150" as="targetPoint"/>
                    </mxGeometry>
                </mxCell>
                <mxCell id="QWBXZVsK699R1kp0Fcie-6" value="&amp;lt;&amp;lt; include &amp;gt;&amp;gt;" style="text;html=1;align=center;verticalAlign=middle;resizable=0;points=[];autosize=1;strokeColor=none;fillColor=none;rotation=0;" parent="bnfdPx3OsxpUxmwKXuvX-1" vertex="1">
                    <mxGeometry x="660" y="389.5" width="90" height="20" as="geometry"/>
                </mxCell>
                <mxCell id="qB6uWl-qiW3buQUqxAzC-51" value="&amp;lt;&amp;lt; extend &amp;gt;&amp;gt;" style="text;html=1;align=center;verticalAlign=middle;resizable=0;points=[];autosize=1;strokeColor=none;fillColor=none;rotation=-10;" parent="bnfdPx3OsxpUxmwKXuvX-1" vertex="1">
                    <mxGeometry x="519" y="40" width="90" height="20" as="geometry"/>
                </mxCell>
                <mxCell id="cvIQdJduSs5EgPtJ4OkU-0" style="edgeStyle=none;rounded=1;html=1;exitX=1;exitY=0.3333333333333333;exitDx=0;exitDy=0;exitPerimeter=0;endArrow=none;endFill=0;strokeColor=default;entryX=0;entryY=0.5;entryDx=0;entryDy=0;" parent="bnfdPx3OsxpUxmwKXuvX-1" source="bnfdPx3OsxpUxmwKXuvX-2" target="cvIQdJduSs5EgPtJ4OkU-1" edge="1">
                    <mxGeometry relative="1" as="geometry">
                        <mxPoint x="130" y="360" as="targetPoint"/>
                        <mxPoint x="20" y="-100" as="sourcePoint"/>
                    </mxGeometry>
                </mxCell>
                <mxCell id="H75N8LXMlPfQLFd8FxEW-6" value="VP User" style="shape=umlActor;verticalLabelPosition=bottom;verticalAlign=top;html=1;outlineConnect=0;" parent="bnfdPx3OsxpUxmwKXuvX-1" vertex="1">
                    <mxGeometry x="50" y="210" width="30" height="60" as="geometry"/>
                </mxCell>
                <mxCell id="H75N8LXMlPfQLFd8FxEW-8" style="edgeStyle=none;rounded=1;html=1;exitX=1;exitY=0.3333333333333333;exitDx=0;exitDy=0;exitPerimeter=0;endArrow=none;endFill=0;strokeColor=default;entryX=0;entryY=0.5;entryDx=0;entryDy=0;" parent="bnfdPx3OsxpUxmwKXuvX-1" source="H75N8LXMlPfQLFd8FxEW-6" target="cvIQdJduSs5EgPtJ4OkU-1" edge="1">
                    <mxGeometry relative="1" as="geometry">
                        <mxPoint x="221.50000000000068" y="335" as="targetPoint"/>
                        <mxPoint x="99.99999999999989" y="310" as="sourcePoint"/>
                    </mxGeometry>
                </mxCell>
                <mxCell id="YWNupX-a00YGrztsJjWv-1" style="edgeStyle=none;html=1;exitX=1;exitY=0.3333333333333333;exitDx=0;exitDy=0;exitPerimeter=0;entryX=0;entryY=0.5;entryDx=0;entryDy=0;strokeColor=default;endArrow=none;endFill=0;" parent="bnfdPx3OsxpUxmwKXuvX-1" source="H75N8LXMlPfQLFd8FxEW-12" target="cvIQdJduSs5EgPtJ4OkU-1" edge="1">
                    <mxGeometry relative="1" as="geometry"/>
                </mxCell>
                <mxCell id="YWNupX-a00YGrztsJjWv-2" style="edgeStyle=none;html=1;exitX=1;exitY=0.3333333333333333;exitDx=0;exitDy=0;exitPerimeter=0;entryX=0;entryY=0.5;entryDx=0;entryDy=0;strokeColor=default;endArrow=none;endFill=0;" parent="bnfdPx3OsxpUxmwKXuvX-1" source="H75N8LXMlPfQLFd8FxEW-12" target="H75N8LXMlPfQLFd8FxEW-0" edge="1">
                    <mxGeometry relative="1" as="geometry"/>
                </mxCell>
                <mxCell id="YWNupX-a00YGrztsJjWv-3" style="edgeStyle=none;html=1;exitX=1;exitY=0.3333333333333333;exitDx=0;exitDy=0;exitPerimeter=0;entryX=0;entryY=0.5;entryDx=0;entryDy=0;strokeColor=default;endArrow=none;endFill=0;" parent="bnfdPx3OsxpUxmwKXuvX-1" source="H75N8LXMlPfQLFd8FxEW-12" target="H75N8LXMlPfQLFd8FxEW-1" edge="1">
                    <mxGeometry relative="1" as="geometry"/>
                </mxCell>
                <mxCell id="H75N8LXMlPfQLFd8FxEW-12" value="Financial Planning" style="shape=umlActor;verticalLabelPosition=bottom;verticalAlign=top;html=1;outlineConnect=0;" parent="bnfdPx3OsxpUxmwKXuvX-1" vertex="1">
                    <mxGeometry x="50" y="329.5" width="30" height="60" as="geometry"/>
                </mxCell>
                <mxCell id="H75N8LXMlPfQLFd8FxEW-13" style="edgeStyle=none;rounded=1;html=1;exitX=0;exitY=0.5;exitDx=0;exitDy=0;endArrow=none;endFill=0;strokeColor=default;entryX=1;entryY=0.3333333333333333;entryDx=0;entryDy=0;entryPerimeter=0;" parent="bnfdPx3OsxpUxmwKXuvX-1" source="bnfdPx3OsxpUxmwKXuvX-3" target="H75N8LXMlPfQLFd8FxEW-12" edge="1">
                    <mxGeometry relative="1" as="geometry">
                        <mxPoint x="201" y="150" as="targetPoint"/>
                        <mxPoint x="89.99999999999989" y="300" as="sourcePoint"/>
                    </mxGeometry>
                </mxCell>
                <mxCell id="bxCHbfFJaJH7GSov7uBA-4" value="Financial Analyst" style="shape=umlActor;verticalLabelPosition=bottom;verticalAlign=top;html=1;outlineConnect=0;" parent="bnfdPx3OsxpUxmwKXuvX-1" vertex="1">
                    <mxGeometry x="50" y="660" width="30" height="60" as="geometry"/>
                </mxCell>
                <mxCell id="AiR8Z1Oag8uWD6PLughn-0" style="edgeStyle=none;html=1;exitX=0;exitY=0.3333333333333333;exitDx=0;exitDy=0;exitPerimeter=0;entryX=1;entryY=0.5;entryDx=0;entryDy=0;strokeColor=default;endArrow=none;endFill=0;" parent="bnfdPx3OsxpUxmwKXuvX-1" source="vvYDOwmuq5FNTQCVvUc1-0" target="cvIQdJduSs5EgPtJ4OkU-1" edge="1">
                    <mxGeometry relative="1" as="geometry"/>
                </mxCell>
                <mxCell id="vvYDOwmuq5FNTQCVvUc1-0" value="SM Financial Planning" style="shape=umlActor;verticalLabelPosition=bottom;verticalAlign=top;html=1;outlineConnect=0;" parent="bnfdPx3OsxpUxmwKXuvX-1" vertex="1">
                    <mxGeometry x="720" y="110" width="30" height="60" as="geometry"/>
                </mxCell>
                <mxCell id="Kvq-qy_fkXs1c3-NVL-2-2" style="edgeStyle=none;rounded=1;html=1;exitX=1;exitY=0.5;exitDx=0;exitDy=0;endArrow=none;endFill=0;strokeColor=default;entryX=0;entryY=0.3333333333333333;entryDx=0;entryDy=0;entryPerimeter=0;" parent="bnfdPx3OsxpUxmwKXuvX-1" source="ifQbI9FNUUDl3qRynOm3-2" target="vvYDOwmuq5FNTQCVvUc1-0" edge="1">
                    <mxGeometry relative="1" as="geometry">
                        <mxPoint x="740" y="160" as="targetPoint"/>
                        <mxPoint x="643.9999999999998" y="240" as="sourcePoint"/>
                    </mxGeometry>
                </mxCell>
                <mxCell id="Kvq-qy_fkXs1c3-NVL-2-3" style="edgeStyle=none;rounded=1;html=1;exitX=1;exitY=0.3333333333333333;exitDx=0;exitDy=0;exitPerimeter=0;endArrow=none;endFill=0;strokeColor=default;entryX=0;entryY=0.5;entryDx=0;entryDy=0;" parent="bnfdPx3OsxpUxmwKXuvX-1" source="bxCHbfFJaJH7GSov7uBA-4" target="cvIQdJduSs5EgPtJ4OkU-1" edge="1">
                    <mxGeometry relative="1" as="geometry">
                        <mxPoint x="211.50000000000068" y="325" as="targetPoint"/>
                        <mxPoint x="89.99999999999989" y="300" as="sourcePoint"/>
                    </mxGeometry>
                </mxCell>
                <mxCell id="Kvq-qy_fkXs1c3-NVL-2-4" style="edgeStyle=none;rounded=1;html=1;exitX=1;exitY=0.3333333333333333;exitDx=0;exitDy=0;exitPerimeter=0;endArrow=none;endFill=0;strokeColor=default;entryX=0;entryY=0.5;entryDx=0;entryDy=0;" parent="bnfdPx3OsxpUxmwKXuvX-1" source="bxCHbfFJaJH7GSov7uBA-4" target="bnfdPx3OsxpUxmwKXuvX-3" edge="1">
                    <mxGeometry relative="1" as="geometry">
                        <mxPoint x="221.50000000000068" y="335" as="targetPoint"/>
                        <mxPoint x="99.99999999999989" y="310" as="sourcePoint"/>
                    </mxGeometry>
                </mxCell>
                <mxCell id="Kvq-qy_fkXs1c3-NVL-2-5" style="edgeStyle=none;rounded=1;html=1;endArrow=none;endFill=0;strokeColor=default;entryX=0;entryY=0.5;entryDx=0;entryDy=0;exitX=1;exitY=0.3333333333333333;exitDx=0;exitDy=0;exitPerimeter=0;" parent="bnfdPx3OsxpUxmwKXuvX-1" source="bxCHbfFJaJH7GSov7uBA-4" target="ifQbI9FNUUDl3qRynOm3-2" edge="1">
                    <mxGeometry relative="1" as="geometry">
                        <mxPoint x="231.50000000000068" y="345" as="targetPoint"/>
                        <mxPoint x="80" y="330" as="sourcePoint"/>
                    </mxGeometry>
                </mxCell>
                <mxCell id="Kvq-qy_fkXs1c3-NVL-2-6" style="edgeStyle=none;rounded=1;html=1;exitX=1;exitY=0.3333333333333333;exitDx=0;exitDy=0;exitPerimeter=0;endArrow=none;endFill=0;strokeColor=default;entryX=0;entryY=0.5;entryDx=0;entryDy=0;" parent="bnfdPx3OsxpUxmwKXuvX-1" source="bxCHbfFJaJH7GSov7uBA-4" target="H75N8LXMlPfQLFd8FxEW-0" edge="1">
                    <mxGeometry relative="1" as="geometry">
                        <mxPoint x="241.50000000000068" y="355" as="targetPoint"/>
                        <mxPoint x="119.99999999999989" y="330" as="sourcePoint"/>
                    </mxGeometry>
                </mxCell>
                <mxCell id="Kvq-qy_fkXs1c3-NVL-2-7" style="edgeStyle=none;rounded=1;html=1;exitX=1;exitY=0.3333333333333333;exitDx=0;exitDy=0;exitPerimeter=0;endArrow=none;endFill=0;strokeColor=default;entryX=0;entryY=0.5;entryDx=0;entryDy=0;" parent="bnfdPx3OsxpUxmwKXuvX-1" source="bxCHbfFJaJH7GSov7uBA-4" target="H75N8LXMlPfQLFd8FxEW-1" edge="1">
                    <mxGeometry relative="1" as="geometry">
                        <mxPoint x="251.50000000000068" y="365" as="targetPoint"/>
                        <mxPoint x="129.9999999999999" y="340" as="sourcePoint"/>
                    </mxGeometry>
                </mxCell>
                <mxCell id="AiR8Z1Oag8uWD6PLughn-10" style="edgeStyle=none;html=1;exitX=0;exitY=0.3333333333333333;exitDx=0;exitDy=0;exitPerimeter=0;entryX=1;entryY=0.5;entryDx=0;entryDy=0;strokeColor=default;endArrow=none;endFill=0;" parent="bnfdPx3OsxpUxmwKXuvX-1" source="Kvq-qy_fkXs1c3-NVL-2-8" target="ifQbI9FNUUDl3qRynOm3-2" edge="1">
                    <mxGeometry relative="1" as="geometry"/>
                </mxCell>
                <mxCell id="AiR8Z1Oag8uWD6PLughn-11" style="edgeStyle=none;html=1;exitX=0;exitY=0.3333333333333333;exitDx=0;exitDy=0;exitPerimeter=0;entryX=1;entryY=0.5;entryDx=0;entryDy=0;strokeColor=default;endArrow=none;endFill=0;" parent="bnfdPx3OsxpUxmwKXuvX-1" source="Kvq-qy_fkXs1c3-NVL-2-8" target="cvIQdJduSs5EgPtJ4OkU-1" edge="1">
                    <mxGeometry relative="1" as="geometry"/>
                </mxCell>
                <mxCell id="Kvq-qy_fkXs1c3-NVL-2-8" value="SM Cash Mgt" style="shape=umlActor;verticalLabelPosition=bottom;verticalAlign=top;html=1;outlineConnect=0;" parent="bnfdPx3OsxpUxmwKXuvX-1" vertex="1">
                    <mxGeometry x="720" y="470" width="30" height="60" as="geometry"/>
                </mxCell>
                <mxCell id="AiR8Z1Oag8uWD6PLughn-12" style="edgeStyle=none;html=1;exitX=0;exitY=0.3333333333333333;exitDx=0;exitDy=0;exitPerimeter=0;strokeColor=default;endArrow=none;endFill=0;" parent="bnfdPx3OsxpUxmwKXuvX-1" source="Kvq-qy_fkXs1c3-NVL-2-9" edge="1">
                    <mxGeometry relative="1" as="geometry">
                        <mxPoint x="440" y="300" as="targetPoint"/>
                    </mxGeometry>
                </mxCell>
                <mxCell id="AiR8Z1Oag8uWD6PLughn-14" style="edgeStyle=none;html=1;exitX=0;exitY=0.3333333333333333;exitDx=0;exitDy=0;exitPerimeter=0;entryX=1;entryY=0.5;entryDx=0;entryDy=0;strokeColor=default;endArrow=none;endFill=0;" parent="bnfdPx3OsxpUxmwKXuvX-1" source="Kvq-qy_fkXs1c3-NVL-2-9" target="ifQbI9FNUUDl3qRynOm3-2" edge="1">
                    <mxGeometry relative="1" as="geometry"/>
                </mxCell>
                <mxCell id="Kvq-qy_fkXs1c3-NVL-2-9" value="VP Treasury" style="shape=umlActor;verticalLabelPosition=bottom;verticalAlign=top;html=1;outlineConnect=0;" parent="bnfdPx3OsxpUxmwKXuvX-1" vertex="1">
                    <mxGeometry x="720" y="560" width="30" height="60" as="geometry"/>
                </mxCell>
                <mxCell id="AiR8Z1Oag8uWD6PLughn-13" style="edgeStyle=none;html=1;exitX=0;exitY=0.3333333333333333;exitDx=0;exitDy=0;exitPerimeter=0;strokeColor=default;endArrow=none;endFill=0;" parent="bnfdPx3OsxpUxmwKXuvX-1" source="Kvq-qy_fkXs1c3-NVL-2-10" edge="1">
                    <mxGeometry relative="1" as="geometry">
                        <mxPoint x="440" y="300" as="targetPoint"/>
                    </mxGeometry>
                </mxCell>
                <mxCell id="AiR8Z1Oag8uWD6PLughn-15" style="edgeStyle=none;html=1;exitX=0;exitY=0.3333333333333333;exitDx=0;exitDy=0;exitPerimeter=0;strokeColor=default;endArrow=none;endFill=0;" parent="bnfdPx3OsxpUxmwKXuvX-1" source="Kvq-qy_fkXs1c3-NVL-2-10" edge="1">
                    <mxGeometry relative="1" as="geometry">
                        <mxPoint x="430" y="380" as="targetPoint"/>
                    </mxGeometry>
                </mxCell>
                <mxCell id="Kvq-qy_fkXs1c3-NVL-2-10" value="Director Finance" style="shape=umlActor;verticalLabelPosition=bottom;verticalAlign=top;html=1;outlineConnect=0;" parent="bnfdPx3OsxpUxmwKXuvX-1" vertex="1">
                    <mxGeometry x="720" y="660" width="30" height="60" as="geometry"/>
                </mxCell>
                <mxCell id="NV_NdOGApcsX_mL6D-j5-2" style="html=1;exitX=1;exitY=0.3333333333333333;exitDx=0;exitDy=0;exitPerimeter=0;entryX=0;entryY=0.5;entryDx=0;entryDy=0;strokeColor=default;endArrow=none;endFill=0;" parent="bnfdPx3OsxpUxmwKXuvX-1" source="NV_NdOGApcsX_mL6D-j5-0" target="cvIQdJduSs5EgPtJ4OkU-1" edge="1">
                    <mxGeometry relative="1" as="geometry">
                        <mxPoint x="130" y="190" as="targetPoint"/>
                    </mxGeometry>
                </mxCell>
                <mxCell id="NV_NdOGApcsX_mL6D-j5-3" style="edgeStyle=none;html=1;exitX=1;exitY=0.3333333333333333;exitDx=0;exitDy=0;exitPerimeter=0;entryX=0;entryY=0.5;entryDx=0;entryDy=0;strokeColor=default;endArrow=none;endFill=0;" parent="bnfdPx3OsxpUxmwKXuvX-1" source="NV_NdOGApcsX_mL6D-j5-0" target="bnfdPx3OsxpUxmwKXuvX-3" edge="1">
                    <mxGeometry relative="1" as="geometry"/>
                </mxCell>
                <mxCell id="NV_NdOGApcsX_mL6D-j5-5" style="edgeStyle=none;html=1;exitX=1;exitY=0.3333333333333333;exitDx=0;exitDy=0;exitPerimeter=0;entryX=0;entryY=0.5;entryDx=0;entryDy=0;strokeColor=default;endArrow=none;endFill=0;" parent="bnfdPx3OsxpUxmwKXuvX-1" source="NV_NdOGApcsX_mL6D-j5-0" target="H75N8LXMlPfQLFd8FxEW-0" edge="1">
                    <mxGeometry relative="1" as="geometry"/>
                </mxCell>
                <mxCell id="NV_NdOGApcsX_mL6D-j5-0" value="Pricing" style="shape=umlActor;verticalLabelPosition=bottom;verticalAlign=top;html=1;outlineConnect=0;" parent="bnfdPx3OsxpUxmwKXuvX-1" vertex="1">
                    <mxGeometry x="50" y="480" width="30" height="60" as="geometry"/>
                </mxCell>
                <mxCell id="AiR8Z1Oag8uWD6PLughn-4" style="edgeStyle=none;html=1;exitX=0;exitY=0.3333333333333333;exitDx=0;exitDy=0;exitPerimeter=0;entryX=1;entryY=0.5;entryDx=0;entryDy=0;strokeColor=default;endArrow=none;endFill=0;" parent="bnfdPx3OsxpUxmwKXuvX-1" source="AiR8Z1Oag8uWD6PLughn-5" target="cvIQdJduSs5EgPtJ4OkU-1" edge="1">
                    <mxGeometry relative="1" as="geometry">
                        <mxPoint x="448.99999999999795" y="388" as="targetPoint"/>
                    </mxGeometry>
                </mxCell>
                <mxCell id="AiR8Z1Oag8uWD6PLughn-5" value="SM Finance" style="shape=umlActor;verticalLabelPosition=bottom;verticalAlign=top;html=1;outlineConnect=0;" parent="bnfdPx3OsxpUxmwKXuvX-1" vertex="1">
                    <mxGeometry x="720" y="290" width="30" height="60" as="geometry"/>
                </mxCell>
                <mxCell id="AiR8Z1Oag8uWD6PLughn-6" style="edgeStyle=none;rounded=1;html=1;exitX=1;exitY=0.5;exitDx=0;exitDy=0;endArrow=none;endFill=0;strokeColor=default;entryX=0;entryY=0.3333333333333333;entryDx=0;entryDy=0;entryPerimeter=0;" parent="bnfdPx3OsxpUxmwKXuvX-1" source="ifQbI9FNUUDl3qRynOm3-2" target="AiR8Z1Oag8uWD6PLughn-5" edge="1">
                    <mxGeometry relative="1" as="geometry">
                        <mxPoint x="750" y="250" as="targetPoint"/>
                        <mxPoint x="440" y="473" as="sourcePoint"/>
                    </mxGeometry>
                </mxCell>
                <mxCell id="AiR8Z1Oag8uWD6PLughn-8" style="edgeStyle=none;html=1;exitX=0;exitY=0.3333333333333333;exitDx=0;exitDy=0;exitPerimeter=0;entryX=1;entryY=0.5;entryDx=0;entryDy=0;strokeColor=default;endArrow=none;endFill=0;" parent="bnfdPx3OsxpUxmwKXuvX-1" source="AiR8Z1Oag8uWD6PLughn-7" target="cvIQdJduSs5EgPtJ4OkU-1" edge="1">
                    <mxGeometry relative="1" as="geometry"/>
                </mxCell>
                <mxCell id="AiR8Z1Oag8uWD6PLughn-9" style="edgeStyle=none;html=1;exitX=0;exitY=0.3333333333333333;exitDx=0;exitDy=0;exitPerimeter=0;entryX=1;entryY=0.5;entryDx=0;entryDy=0;strokeColor=default;endArrow=none;endFill=0;" parent="bnfdPx3OsxpUxmwKXuvX-1" source="AiR8Z1Oag8uWD6PLughn-7" target="ifQbI9FNUUDl3qRynOm3-2" edge="1">
                    <mxGeometry relative="1" as="geometry"/>
                </mxCell>
                <mxCell id="AiR8Z1Oag8uWD6PLughn-7" value="SM Pricing" style="shape=umlActor;verticalLabelPosition=bottom;verticalAlign=top;html=1;outlineConnect=0;" parent="bnfdPx3OsxpUxmwKXuvX-1" vertex="1">
                    <mxGeometry x="720" y="200" width="30" height="60" as="geometry"/>
                </mxCell>
            </root>
        </mxGraphModel>
    </diagram>
    <diagram id="M1N548urhv511kOqAWbT" name="integration">
        <mxGraphModel dx="816" dy="475" grid="1" gridSize="10" guides="1" tooltips="1" connect="1" arrows="1" fold="1" page="1" pageScale="1" pageWidth="850" pageHeight="1100" math="0" shadow="0">
            <root>
                <mxCell id="qv0avCqURpon0dRjZNO8-0"/>
                <mxCell id="qv0avCqURpon0dRjZNO8-1" parent="qv0avCqURpon0dRjZNO8-0"/>
                <mxCell id="r-XPRNc9Dvor8jF8CXSr-1" value="" style="whiteSpace=wrap;html=1;strokeColor=#000000;" parent="qv0avCqURpon0dRjZNO8-1" vertex="1">
                    <mxGeometry x="550" y="38" width="210" height="482" as="geometry"/>
                </mxCell>
                <mxCell id="QnNU7NQVVPwpDhB2fIjP-6" value="" style="whiteSpace=wrap;html=1;strokeColor=#000000;" parent="qv0avCqURpon0dRjZNO8-1" vertex="1">
                    <mxGeometry x="578" y="282" width="152" height="228" as="geometry"/>
                </mxCell>
                <mxCell id="qv0avCqURpon0dRjZNO8-5" value="STICKER" style="verticalLabelPosition=bottom;html=1;verticalAlign=top;align=center;strokeColor=none;fillColor=#00BEF2;shape=mxgraph.azure.database;" parent="qv0avCqURpon0dRjZNO8-1" vertex="1">
                    <mxGeometry x="359.88" y="256" width="37.5" height="50" as="geometry"/>
                </mxCell>
                <mxCell id="qv0avCqURpon0dRjZNO8-7" value="Application SOE" style="verticalLabelPosition=bottom;html=1;verticalAlign=top;align=center;strokeColor=none;fillColor=#00BEF2;shape=mxgraph.azure.database;" parent="qv0avCqURpon0dRjZNO8-1" vertex="1">
                    <mxGeometry x="586" y="170" width="37.5" height="50" as="geometry"/>
                </mxCell>
                <mxCell id="qv0avCqURpon0dRjZNO8-9" value="LDAP" style="verticalLabelPosition=bottom;html=1;verticalAlign=top;align=center;strokeColor=none;fillColor=#00BEF2;shape=mxgraph.azure.azure_active_directory;" parent="qv0avCqURpon0dRjZNO8-1" vertex="1">
                    <mxGeometry x="581" y="68" width="47.5" height="50" as="geometry"/>
                </mxCell>
                <mxCell id="qv0avCqURpon0dRjZNO8-10" value="" style="shape=doubleArrow;whiteSpace=wrap;html=1;strokeColor=#000000;" parent="qv0avCqURpon0dRjZNO8-1" vertex="1">
                    <mxGeometry x="199" y="256" width="100" height="30" as="geometry"/>
                </mxCell>
                <mxCell id="hwNCRt9pPEMxUwAvyr94-5" style="edgeStyle=orthogonalEdgeStyle;shape=flexArrow;html=1;" parent="qv0avCqURpon0dRjZNO8-1" edge="1">
                    <mxGeometry relative="1" as="geometry">
                        <mxPoint x="453" y="271" as="targetPoint"/>
                        <mxPoint x="513" y="271" as="sourcePoint"/>
                    </mxGeometry>
                </mxCell>
                <mxCell id="hwNCRt9pPEMxUwAvyr94-1" value="" style="sketch=0;aspect=fixed;html=1;points=[];align=center;image;fontSize=12;image=img/lib/mscae/SAP_HANA_on_Azure.svg;" parent="qv0avCqURpon0dRjZNO8-1" vertex="1">
                    <mxGeometry x="598" y="293" width="120" height="60" as="geometry"/>
                </mxCell>
                <mxCell id="QnNU7NQVVPwpDhB2fIjP-0" value="" style="whiteSpace=wrap;html=1;strokeColor=#000000;" parent="qv0avCqURpon0dRjZNO8-1" vertex="1">
                    <mxGeometry x="588" y="382" width="122" height="118" as="geometry"/>
                </mxCell>
                <mxCell id="QnNU7NQVVPwpDhB2fIjP-7" value="Application&lt;br&gt;Dashboard Finance" style="verticalLabelPosition=bottom;html=1;verticalAlign=top;align=center;strokeColor=none;fillColor=#00BEF2;shape=mxgraph.azure.database;" parent="qv0avCqURpon0dRjZNO8-1" vertex="1">
                    <mxGeometry x="630" y="402" width="37.5" height="50" as="geometry"/>
                </mxCell>
                <mxCell id="QnNU7NQVVPwpDhB2fIjP-8" value="Alternatif Data" style="text;html=1;align=center;verticalAlign=middle;resizable=0;points=[];autosize=1;strokeColor=none;fillColor=none;" parent="qv0avCqURpon0dRjZNO8-1" vertex="1">
                    <mxGeometry x="610" y="353" width="100" height="30" as="geometry"/>
                </mxCell>
                <mxCell id="QnNU7NQVVPwpDhB2fIjP-11" value="Application &#10;Sticker" style="swimlane;startSize=40;" parent="qv0avCqURpon0dRjZNO8-1" vertex="1">
                    <mxGeometry x="320" y="196" width="120" height="150" as="geometry"/>
                </mxCell>
                <mxCell id="B92lFVbLRWWNNqWOVYfw-0" value="" style="whiteSpace=wrap;html=1;strokeColor=#000000;" parent="qv0avCqURpon0dRjZNO8-1" vertex="1">
                    <mxGeometry x="60" y="196" width="110" height="153" as="geometry"/>
                </mxCell>
                <mxCell id="B92lFVbLRWWNNqWOVYfw-1" value="" style="verticalLabelPosition=bottom;html=1;verticalAlign=top;align=center;strokeColor=none;fillColor=#00BEF2;shape=mxgraph.azure.computer;" parent="qv0avCqURpon0dRjZNO8-1" vertex="1">
                    <mxGeometry x="90" y="222.5" width="50" height="45" as="geometry"/>
                </mxCell>
                <mxCell id="B92lFVbLRWWNNqWOVYfw-2" value="" style="verticalLabelPosition=bottom;html=1;verticalAlign=top;align=center;strokeColor=none;fillColor=#00BEF2;shape=mxgraph.azure.laptop;" parent="qv0avCqURpon0dRjZNO8-1" vertex="1">
                    <mxGeometry x="91" y="300.5" width="50" height="30" as="geometry"/>
                </mxCell>
                <mxCell id="B92lFVbLRWWNNqWOVYfw-3" value="Application OLA" style="verticalLabelPosition=bottom;html=1;verticalAlign=top;align=center;strokeColor=none;fillColor=#00BEF2;shape=mxgraph.azure.database;" parent="qv0avCqURpon0dRjZNO8-1" vertex="1">
                    <mxGeometry x="686" y="170" width="37.5" height="50" as="geometry"/>
                </mxCell>
                <mxCell id="B92lFVbLRWWNNqWOVYfw-4" value="Application MyHC" style="verticalLabelPosition=bottom;html=1;verticalAlign=top;align=center;strokeColor=none;fillColor=#00BEF2;shape=mxgraph.azure.database;" parent="qv0avCqURpon0dRjZNO8-1" vertex="1">
                    <mxGeometry x="686" y="65" width="37.5" height="50" as="geometry"/>
                </mxCell>
            </root>
        </mxGraphModel>
    </diagram>
</mxfile>